<svg width="126" height="144" viewBox="0 0 126 144" fill="none" xmlns="http://www.w3.org/2000/svg">
<path d="M63 9C92.8125 9 117 17.1562 117 27V36C117 46.125 92.8125 54 63 54C33.1875 54 9 46.125 9 36V27C9 17.1562 33.1875 9 63 9ZM117 51.1875V63C117 73.125 92.8125 81 63 81C33.1875 81 9 73.125 9 63V51.1875C20.5312 59.3438 41.625 63 63 63C84.0938 63 105.188 59.3438 117 51.1875ZM117 78.1875V90C117 100.125 92.8125 108 63 108C33.1875 108 9 100.125 9 90V78.1875C20.5312 86.3438 41.625 90 63 90C84.0938 90 105.188 86.3438 117 78.1875ZM117 105.188V117C117 127.125 92.8125 135 63 135C33.1875 135 9 127.125 9 117V105.188C20.5312 113.344 41.625 117 63 117C84.0938 117 105.188 113.344 117 105.188ZM63 0C40.7812 0 0 5.34375 0 27V117C0 138.938 41.0625 144 63 144C84.9375 144 126 138.938 126 117V27C126 5.34375 84.6562 0 63 0Z" fill="#4287D6"/>
</svg>
