<?xml version="1.0" encoding="UTF-8"?>
<svg width="476px" height="284px" viewBox="0 0 476 284" version="1.1" xmlns="http://www.w3.org/2000/svg" xmlns:xlink="http://www.w3.org/1999/xlink">
    <!-- Generator: Sketch 49.3 (51167) - http://www.bohemiancoding.com/sketch -->
    <title>Get the agility of SQL and the flexibility of JSON</title>
    <desc>Created with Sketch.</desc>
    <defs>
        <linearGradient x1="50%" y1="0%" x2="50%" y2="100%" id="linearGradient-1">
            <stop stop-color="#F1EFEF" offset="0%"></stop>
            <stop stop-color="#DEDADA" offset="100%"></stop>
        </linearGradient>
        <linearGradient x1="50%" y1="0%" x2="50%" y2="100%" id="linearGradient-2">
            <stop stop-color="#FC9C0C" offset="0%"></stop>
            <stop stop-color="#EB4971" offset="100%"></stop>
        </linearGradient>
    </defs>
    <g id="N1QL" stroke="none" stroke-width="1" fill="none" fill-rule="evenodd">
        <g id="Get-the-agility-of-SQL-and-the-flexibility-of-JSON" transform="translate(-6.000000, 0.000000)">
            <g id="Group-12" opacity="0.9" transform="translate(399.000000, 146.000000)">
                <path d="M82.7626041,41.8963666 C82.7626041,65.0350451 64.2357971,83.7927333 41.3819238,83.7927333 C18.526807,83.7927333 0,65.0350451 0,41.8963666 C0,18.7576882 18.526807,0 41.3819238,0 C64.2357971,0 82.7626041,18.7576882 82.7626041,41.8963666 Z" id="Stroke-130" fill="#00ACE0"></path>
                <path d="M52.1517779,33.861447 C52.1517779,43.6871324 44.2837869,51.6530548 34.5788962,51.6530548 C24.8740056,51.6530548 17.0060145,43.6871324 17.0060145,33.861447 C17.0060145,24.0357616 24.8740056,16.0698393 34.5788962,16.0698393 C44.2837869,16.0698393 52.1517779,24.0357616 52.1517779,33.861447 Z" id="Stroke-122" stroke="#FFFFFF" stroke-width="3.27653947" stroke-linecap="round" stroke-linejoin="round"></path>
                <path d="M21.5409518,33.2875242 C21.5409518,26.3146524 27.1248802,20.6612219 34.0120291,20.6612219" id="Stroke-124" stroke="#FFFFFF" stroke-width="2.4574046" stroke-linecap="round" stroke-linejoin="round"></path>
                <path d="M53.2855122,53.9487461 L61.2216524,61.9836657" id="Stroke-126" stroke="#FFFFFF" stroke-width="4.95576594" stroke-linecap="round" stroke-linejoin="round"></path>
                <path d="M46.4831064,47.0616721 L53.2855122,53.9487461" id="Stroke-128" stroke="#FFFFFF" stroke-width="2.70314506"></path>
            </g>
            <g id="Group-13" transform="translate(101.879406, 43.747748)">
                <path d="M285.082399,184.674072 L4.84984379,184.674072 C-0.70745721,184.674072 -0.35009796,183.577711 0.512304722,182.25275 L37.1698885,146.378242 C37.7578903,145.475733 39.6796079,144.744216 41.2056778,144.744216 L248.726565,144.744216 C250.254458,144.744216 252.175264,145.475733 252.762354,146.378242 L289.419938,182.25275 C290.282341,183.577711 290.6397,184.674072 285.082399,184.674072 Z" id="Fill-24" fill="#FFFFFF"></path>
                <path d="M285.082399,184.674072 L4.84984379,184.674072 C-0.70745721,184.674072 -0.35009796,183.577711 0.512304722,182.25275 L37.1698885,146.378242 C37.7578903,145.475733 39.6796079,144.744216 41.2056778,144.744216 L248.726565,144.744216 C250.254458,144.744216 252.175264,145.475733 252.762354,146.378242 L289.419938,182.25275 C290.282341,183.577711 290.6397,184.674072 285.082399,184.674072 Z" id="Stroke-26" stroke="#000000" stroke-width="5.389902" stroke-linecap="round" stroke-linejoin="round"></path>
                <path d="M88.8443096,179.800065 L198.995741,179.800065" id="Stroke-28" stroke="#000000" stroke-width="4.234923" stroke-linecap="round" stroke-linejoin="round"></path>
                <path d="M253.921949,12.2168333 C253.921949,7.66131109 250.150532,3.93423192 245.540416,3.93423192 L44.3945621,3.93423192 C39.7853571,3.93423192 36.0139407,7.66131109 36.0139407,12.2168333 L36.0139407,136.460426 C36.0139407,141.015948 39.7853571,144.743027 44.3945621,144.743027 L245.540416,144.743027 C250.150532,144.743027 253.921949,141.015948 253.921949,136.460426 L253.921949,12.2168333 Z" id="Fill-30" fill="url(#linearGradient-1)"></path>
                <path d="M253.921949,8.89524685 C253.921949,4.33972467 250.150532,0.612645496 245.540416,0.612645496 L44.3945621,0.612645496 C39.7853571,0.612645496 36.0139407,4.33972467 36.0139407,8.89524685 L36.0139407,133.138839 C36.0139407,137.694361 35.6212102,141.42144 40.2304152,141.42144 L250.817117,141.42144 C255.427233,141.42144 253.921949,137.694361 253.921949,133.138839 L253.921949,8.89524685 Z" id="Stroke-32" stroke="#000000" stroke-width="4.619916" stroke-linecap="round" stroke-linejoin="round"></path>
                <path d="M42.4929004,151.132182 L54.7443059,151.132182" id="Stroke-34" stroke="#000000" stroke-width="3.079944" opacity="0.8" stroke-linecap="round" stroke-linejoin="round"></path>
                <path d="M64.1580785,151.132182 L76.409484,151.132182" id="Stroke-36" stroke="#000000" stroke-width="3.079944" opacity="0.8" stroke-linecap="round" stroke-linejoin="round"></path>
                <path d="M85.8233477,151.132182 L98.0747532,151.132182" id="Stroke-38" stroke="#000000" stroke-width="3.079944" opacity="0.8" stroke-linecap="round" stroke-linejoin="round"></path>
                <path d="M107.488617,151.132182 L119.740022,151.132182" id="Stroke-40" stroke="#000000" stroke-width="3.079944" opacity="0.8" stroke-linecap="round" stroke-linejoin="round"></path>
                <path d="M129.153795,151.132182 L141.405201,151.132182" id="Stroke-42" stroke="#000000" stroke-width="3.079944" opacity="0.8" stroke-linecap="round" stroke-linejoin="round"></path>
                <path d="M150.819064,151.132182 L163.07047,151.132182" id="Stroke-44" stroke="#000000" stroke-width="3.079944" opacity="0.8" stroke-linecap="round" stroke-linejoin="round"></path>
                <path d="M172.484333,151.132182 L184.735739,151.132182" id="Stroke-46" stroke="#000000" stroke-width="3.079944" opacity="0.8" stroke-linecap="round" stroke-linejoin="round"></path>
                <path d="M194.149512,151.132182 L206.400917,151.132182" id="Stroke-48" stroke="#000000" stroke-width="3.079944" opacity="0.8" stroke-linecap="round" stroke-linejoin="round"></path>
                <path d="M215.814781,151.132182 L228.066186,151.132182" id="Stroke-50" stroke="#000000" stroke-width="3.079944" opacity="0.8" stroke-linecap="round" stroke-linejoin="round"></path>
                <path d="M236.432404,151.132182 L248.683809,151.132182" id="Stroke-52" stroke="#000000" stroke-width="3.079944" opacity="0.8" stroke-linecap="round" stroke-linejoin="round"></path>
                <path d="M35.4886591,158.605752 L48.060047,158.605752" id="Stroke-58" stroke="#000000" stroke-width="3.079944" opacity="0.8" stroke-linecap="round" stroke-linejoin="round"></path>
                <path d="M27.1074907,166.079321 L40.7263423,166.079321" id="Stroke-59" stroke="#000000" stroke-width="3.079944" opacity="0.8" stroke-linecap="round" stroke-linejoin="round"></path>
                <path d="M47.6528215,166.079321 L61.2716732,166.079321" id="Stroke-60" stroke="#000000" stroke-width="3.079944" opacity="0.8" stroke-linecap="round" stroke-linejoin="round"></path>
                <path d="M68.1981524,166.079321 L81.8170041,166.079321" id="Stroke-61" stroke="#000000" stroke-width="3.079944" opacity="0.8" stroke-linecap="round" stroke-linejoin="round"></path>
                <path d="M88.7434833,166.079321 L102.362335,166.079321" id="Stroke-62" stroke="#000000" stroke-width="3.079944" opacity="0.8" stroke-linecap="round" stroke-linejoin="round"></path>
                <path d="M109.288723,166.079321 L122.907575,166.079321" id="Stroke-63" stroke="#000000" stroke-width="3.079944" opacity="0.8" stroke-linecap="round" stroke-linejoin="round"></path>
                <path d="M129.834054,166.079321 L143.452906,166.079321" id="Stroke-64" stroke="#000000" stroke-width="3.079944" opacity="0.8" stroke-linecap="round" stroke-linejoin="round"></path>
                <path d="M150.379385,166.079321 L163.998236,166.079321" id="Stroke-65" stroke="#000000" stroke-width="3.079944" opacity="0.8" stroke-linecap="round" stroke-linejoin="round"></path>
                <path d="M170.924716,166.079321 L184.543567,166.079321" id="Stroke-66" stroke="#000000" stroke-width="3.079944" opacity="0.8" stroke-linecap="round" stroke-linejoin="round"></path>
                <path d="M191.470046,166.079321 L205.088898,166.079321" id="Stroke-67" stroke="#000000" stroke-width="3.079944" opacity="0.8" stroke-linecap="round" stroke-linejoin="round"></path>
                <path d="M212.015377,166.079321 L225.634229,166.079321" id="Stroke-68" stroke="#000000" stroke-width="3.079944" opacity="0.8" stroke-linecap="round" stroke-linejoin="round"></path>
                <path d="M234.328087,166.079321 L264.397315,166.079321" id="Stroke-69" stroke="#000000" stroke-width="3.079944" opacity="0.8" stroke-linecap="round" stroke-linejoin="round"></path>
                <path d="M55.3471673,158.605752 L67.9185553,158.605752" id="Stroke-70" stroke="#000000" stroke-width="3.079944" opacity="0.8" stroke-linecap="round" stroke-linejoin="round"></path>
                <path d="M75.2056756,158.605752 L87.7770635,158.605752" id="Stroke-71" stroke="#000000" stroke-width="3.079944" opacity="0.8" stroke-linecap="round" stroke-linejoin="round"></path>
                <path d="M95.0641839,158.605752 L107.635572,158.605752" id="Stroke-72" stroke="#000000" stroke-width="3.079944" opacity="0.8" stroke-linecap="round" stroke-linejoin="round"></path>
                <path d="M114.922692,158.605752 L127.49408,158.605752" id="Stroke-73" stroke="#000000" stroke-width="3.079944" opacity="0.8" stroke-linecap="round" stroke-linejoin="round"></path>
                <path d="M134.781292,158.605752 L147.352679,158.605752" id="Stroke-74" stroke="#000000" stroke-width="3.079944" opacity="0.8" stroke-linecap="round" stroke-linejoin="round"></path>
                <path d="M154.6398,158.605752 L167.211188,158.605752" id="Stroke-75" stroke="#000000" stroke-width="3.079944" opacity="0.8" stroke-linecap="round" stroke-linejoin="round"></path>
                <path d="M174.498308,158.605752 L187.069696,158.605752" id="Stroke-76" stroke="#000000" stroke-width="3.079944" opacity="0.8" stroke-linecap="round" stroke-linejoin="round"></path>
                <path d="M214.215416,158.605752 L226.786804,158.605752" id="Stroke-77" stroke="#000000" stroke-width="3.079944" opacity="0.8" stroke-linecap="round" stroke-linejoin="round"></path>
                <path d="M194.356816,158.605752 L206.928204,158.605752" id="Stroke-78" stroke="#000000" stroke-width="3.079944" opacity="0.8" stroke-linecap="round" stroke-linejoin="round"></path>
                <path d="M235.335348,158.605752 L257.064066,158.605752" id="Stroke-79" stroke="#000000" stroke-width="3.079944" opacity="0.8" stroke-linecap="round" stroke-linejoin="round"></path>
                <g id="Group-3" transform="translate(40.624143, 7.473569)">
                    <path d="M207.278854,27.8890908 L0.783373804,27.8890908 L0.783373804,3.55964842 C0.783373804,1.83911212 2.1545176,0.444615894 3.84624155,0.444615894 L204.215987,0.444615894 C205.90771,0.444615894 207.278854,1.83911212 207.278854,3.55964842 L207.278854,27.8890908 Z" id="Fill-80" fill="#FFFFFF"></path>
                    <polygon id="Fill-81" fill="#00ACE0" opacity="0.1" points="0.783373804 25.9963684 207.278854 25.9963684 207.278854 12.7473115 0.783373804 12.7473115"></polygon>
                    <path d="M3.84624155,127.050681 C2.1545176,127.050681 0.783373804,125.536619 0.783373804,123.668563 L0.783373804,25.9963684 L207.278854,25.9963684 L207.278854,123.668563 C207.278854,125.536619 205.90771,127.050681 204.215987,127.050681 L3.84624155,127.050681 Z" id="Fill-82" fill="url(#linearGradient-2)"></path>
                    <polygon id="Fill-83" fill="#FC9C0C" points="9.1548122 26.9427296 83.567598 26.9427296 83.567598 16.5327564 9.1548122 16.5327564"></polygon>
                    <path d="M11.0151318,6.59596372 C11.0151318,7.90246107 9.97408936,8.96186673 8.69023814,8.96186673 C7.40537522,8.96186673 6.36433274,7.90246107 6.36433274,6.59596372 C6.36433274,5.28946636 7.40537522,4.23006071 8.69023814,4.23006071 C9.97408936,4.23006071 11.0151318,5.28946636 11.0151318,6.59596372" id="Fill-84" fill="#EA2328"></path>
                    <path d="M18.4564104,6.59596372 C18.4564104,7.90246107 17.4153679,8.96186673 16.1315167,8.96186673 C14.8466538,8.96186673 13.8056113,7.90246107 13.8056113,6.59596372 C13.8056113,5.28946636 14.8466538,4.23006071 16.1315167,4.23006071 C17.4153679,4.23006071 18.4564104,5.28946636 18.4564104,6.59596372" id="Fill-85" fill="#EFCD0F"></path>
                    <path d="M24.9675292,6.59596372 C24.9675292,7.90246107 23.9264867,8.96186673 22.6426355,8.96186673 C21.3577725,8.96186673 20.3167301,7.90246107 20.3167301,6.59596372 C20.3167301,5.28946636 21.3577725,4.23006071 22.6426355,4.23006071 C23.9264867,4.23006071 24.9675292,5.28946636 24.9675292,6.59596372" id="Fill-86" fill="#00B9BE"></path>
                    <g id="Group" transform="translate(16.058390, 22.345054)" fill="#FFFFFF">
                        <path d="M2.85010156,14.0765177 C2.85010156,13.7736736 2.8912408,12.9621561 2.8912408,12.6173595 C2.8912408,11.037588 2.27415219,10.3886362 0.572845521,10.3886362 L0.0393624629,10.3886362 L0.0393624629,8.52306367 L0.572845521,8.52306367 C2.27415219,8.52306367 2.8912408,7.85444668 2.8912408,6.27336415 C2.8912408,5.92856755 2.85010156,5.11836107 2.85010156,4.81420589 C2.85010156,2.74804829 3.77241679,1.45014472 7.5067982,0.780216717 L7.93809669,2.40194067 C5.4763776,3.07186868 5.14726368,3.69984424 5.14726368,5.1786677 C5.14726368,5.58508195 5.18840292,6.25238793 5.18840292,6.6797784 C5.18840292,8.26086093 4.40941149,9.02911496 3.05447069,9.45519442 C4.42931757,9.90093908 5.18840292,10.6508389 5.18840292,12.2319214 C5.18840292,12.6580009 5.14726368,13.3266179 5.14726368,13.7330321 C5.14726368,15.2118556 5.4763776,15.8398312 7.93809669,16.5097592 L7.5067982,18.1301721 C3.77241679,17.4615551 2.85010156,16.1636516 2.85010156,14.0765177" id="Fill-87"></path>
                        <path d="M12.4516591,13.6581549 L13.83821,11.9621305 C15.0926506,13.0795112 16.3676957,13.7167675 17.9796822,13.7167675 C19.4025937,13.7167675 20.3019125,13.0221457 20.3019125,12.019496 L20.3019125,11.9808366 C20.3019125,11.0168463 19.7783199,10.4968153 17.3421597,9.91941874 C14.5496657,9.22479699 12.9764638,8.37553771 12.9764638,5.88886666 L12.9764638,5.85020728 C12.9764638,3.53687989 14.8502466,1.93688041 17.4548776,1.93688041 C19.3650211,1.93688041 20.8836821,2.53423018 22.2144801,3.6329048 L20.9770077,5.42620118 C19.7965002,4.51957638 18.6159927,4.03820475 17.417305,4.03820475 C16.0671147,4.03820475 15.2805137,4.75153265 15.2805137,5.63820423 L15.2805137,5.67686361 C15.2805137,6.7181727 15.8804636,7.18083818 18.4099493,7.7968941 C21.1830511,8.49151585 22.6071745,9.51287172 22.6071745,11.7501274 L22.6071745,11.7887868 C22.6071745,14.3141172 20.6776387,15.8168447 17.9227173,15.8168447 C15.9180363,15.8168447 14.0260731,15.1047639 12.4516591,13.6581549" id="Fill-88"></path>
                        <path d="M34.5238303,12.8818527 L32.1280688,10.9317245 L33.6928045,9.22781216 L36.1282607,11.3482091 C36.5623405,10.6279356 36.8005081,9.77659197 36.8005081,8.82970181 L36.8005081,8.7917282 C36.8005081,6.21564798 34.8401067,4.07687667 32.0896546,4.07687667 C29.3379221,4.07687667 27.4172153,6.17889934 27.4172153,8.7537546 L27.4172153,8.7917282 C27.4172153,11.3665835 29.3776167,13.4882054 32.1280688,13.4882054 C33.0384838,13.4882054 33.8503025,13.2603638 34.5238303,12.8818527 Z M37.9682978,15.8168447 L36.3062462,14.397122 C35.1384565,15.1737434 33.7120116,15.646576 32.0896546,15.646576 C27.8333684,15.646576 24.8639557,12.5609145 24.8639557,8.82970181 L24.8639557,8.7917282 C24.8639557,5.06174044 27.873063,1.93688041 32.1280688,1.93688041 C36.384355,1.93688041 39.3537676,5.02376684 39.3537676,8.7537546 L39.3537676,8.7917282 C39.3537676,10.2873982 38.8402987,11.7083459 37.9490907,12.8634784 L39.5330336,14.150906 L37.9682978,15.8168447 Z" id="Fill-89"></path>
                        <polygon id="Fill-90" points="41.7898148 1.93688041 44.0516501 1.93688041 44.0516501 13.5954348 50.8169396 13.5954348 50.8169396 15.8168447 41.7898148 15.8168447"></polygon>
                        <path d="M54.2021114,16.5084482 C56.6638305,15.8385202 56.9916174,15.2118556 56.9916174,13.7317211 C56.9916174,13.3266179 56.9504781,12.6580009 56.9504781,12.2306104 C56.9504781,10.6508389 57.7307966,9.88127387 59.0844104,9.4538834 C57.7108906,9.00944976 56.9504781,8.25954992 56.9504781,6.67846739 C56.9504781,6.25238793 56.9916174,5.58377094 56.9916174,5.1786677 C56.9916174,3.69853323 56.6638305,3.07055766 54.2021114,2.40194067 L54.6320829,0.780216717 C58.3664643,1.45014472 59.2901066,2.74673728 59.2901066,4.81289488 C59.2901066,5.11836107 59.2489673,5.92856755 59.2489673,6.27336415 C59.2489673,7.85444668 59.8647289,8.52175266 61.5673626,8.52175266 L62.1008457,8.52175266 L62.1008457,10.3873252 L61.5673626,10.3873252 C59.8647289,10.3873252 59.2489673,11.0362769 59.2489673,12.6173595 C59.2489673,12.9608451 59.2901066,13.7723626 59.2901066,14.0752067 C59.2901066,16.1636516 58.3664643,17.4602441 54.6320829,18.1301721 L54.2021114,16.5084482 Z" id="Fill-91"></path>
                    </g>
                    <path d="M16.5960908,54.6906904 L70.3080342,54.6906904" id="Stroke-92" stroke="#FFFFFF" stroke-width="3.079944"></path>
                    <path d="M16.5960908,111.905567 L53.960921,111.905567" id="Stroke-93" stroke="#FFFFFF" stroke-width="3.079944"></path>
                    <path d="M16.5960908,90.8706856 L59.7991757,90.8706856" id="Stroke-94" stroke="#FFFFFF" stroke-width="3.079944"></path>
                    <path d="M104.169912,90.8706856 L179.142994,90.8706856" id="Stroke-95" stroke="#FFFFFF" stroke-width="3.079944"></path>
                    <path d="M36.4461568,65.6288285 L90.1581003,65.6288285" id="Stroke-96" stroke="#FFFFFF" stroke-width="3.079944"></path>
                    <path d="M36.4461568,100.967428 L117.014072,100.967428" id="Stroke-97" stroke="#FFFFFF" stroke-width="3.079944"></path>
                    <path d="M52.7932701,79.0911523 L169.594247,79.0911523" id="Stroke-98" stroke="#FFFFFF" stroke-width="3.079944"></path>
                    <path d="M142.702393,66.4702237 L185.508826,66.4702237" id="Stroke-99" stroke="#FFFFFF" stroke-width="3.079944"></path>
                    <path d="M59.7991757,112.746962 L88.9603852,112.746962" id="Stroke-100" stroke="#FFFFFF" stroke-width="3.079944"></path>
                    <path d="M99.4993078,65.6288285 L134.528836,65.6288285" id="Stroke-101" stroke="#FFFFFF" stroke-width="3.079944"></path>
                    <path d="M125.187629,101.808824 L177.021051,101.808824" id="Stroke-102" stroke="#FFFFFF" stroke-width="3.079944"></path>
                </g>
                <path d="M18.2025904,173.552891 L42.2979026,173.552891" id="Stroke-104" stroke="#000000" stroke-width="3.079944" opacity="0.8" stroke-linecap="round" stroke-linejoin="round"></path>
                <path d="M50.6793444,173.552891 L74.7746566,173.552891" id="Stroke-105" stroke="#000000" stroke-width="3.079944" opacity="0.8" stroke-linecap="round" stroke-linejoin="round"></path>
                <path d="M213.063023,173.552891 L237.158336,173.552891" id="Stroke-106" stroke="#000000" stroke-width="3.079944" opacity="0.8" stroke-linecap="round" stroke-linejoin="round"></path>
                <path d="M245.539686,173.552891 L269.634998,173.552891" id="Stroke-107" stroke="#000000" stroke-width="3.079944" opacity="0.8" stroke-linecap="round" stroke-linejoin="round"></path>
                <path d="M2.48844668,184.348047 L287.445984,184.348047" id="Stroke-108" stroke="#000000" stroke-width="8.31584895" stroke-linecap="round" stroke-linejoin="round"></path>
            </g>
            <g id="Jason" opacity="0.9" transform="translate(11.000000, 46.000000)">
                <g id="JSON" transform="translate(0.916667, 30.246794)" fill="#B36CDB">
                    <path d="M8.87096774,18.2666148 L9.16666667,17.1783002 C5.71684588,16.4100781 5.32258065,15.6631954 5.32258065,13.7426401 C5.32258065,13.3158501 5.34722222,12.590307 5.34722222,12.1421774 C5.34722222,10.3496591 4.43548387,9.6027765 2.78449821,9.13330742 C4.36155914,8.70651736 5.34722222,7.91695573 5.34722222,6.12443745 C5.34722222,5.67630788 5.32258065,4.95076477 5.32258065,4.5239747 C5.32258065,2.60341941 5.71684588,1.85653679 9.16666667,1.08831467 L8.87096774,0 C4.43548387,0.70420361 3.52374552,2.09127133 3.52374552,4.31057967 C3.52374552,4.63067222 3.5483871,5.56961037 3.5483871,5.93238192 C3.5483871,7.59686318 2.85842294,8.49312232 0.640681004,8.49312232 L0,8.49312232 L0,9.77349252 L0.640681004,9.77349252 C2.85842294,9.77349252 3.5483871,10.6697517 3.5483871,12.3342329 C3.5483871,12.6970045 3.52374552,13.6359426 3.52374552,13.9560352 C3.52374552,16.1753435 4.43548387,17.5624112 8.87096774,18.2666148 Z" id="{-"></path>
                    <path d="M18.569781,17.3078699 C20.0759626,17.3078699 21.3454585,16.8310204 22.2276506,15.9000286 C23.1098427,14.9690367 23.6477646,13.5611954 23.6477646,11.6765046 L23.6477646,1.18581616 L20.9151209,1.18581616 L20.9151209,11.5856762 C20.9151209,13.7201452 19.9468613,14.7192584 18.5267473,14.7192584 C17.2572514,14.7192584 16.3750593,14.0380449 15.4928673,12.8345676 L13.75,14.7419655 C14.7397765,16.172514 16.245958,17.3078699 18.569781,17.3078699 Z M32.5381202,17.3078699 C35.7011015,17.3078699 37.9173401,15.5367147 37.9173401,12.5620822 L37.9173401,12.516668 C37.9173401,9.88264231 36.2820572,8.67916507 33.0975591,7.86170882 C30.1927803,7.13508105 29.5042401,6.59011022 29.5042401,5.36392585 L29.5042401,5.31851162 C29.5042401,4.27398419 30.4079491,3.43382083 31.9571644,3.43382083 C33.3342447,3.43382083 34.6898081,4.00149878 36.0453716,5.06873332 L37.4654856,2.95697135 C35.9377872,1.66266563 34.1949199,0.958744978 32.0001982,0.958744978 C29.0093519,0.958744978 26.857664,2.84343576 26.857664,5.56828991 L26.857664,5.61370415 C26.857664,8.54292236 28.6650818,9.54203555 31.8710969,10.3594918 C34.6682913,11.0407053 35.2707639,11.6537975 35.2707639,12.7891534 L35.2707639,12.8345676 C35.2707639,14.0153378 34.2379537,14.832794 32.6026708,14.832794 C30.7522192,14.832794 29.2890714,14.0834591 27.8474404,12.7664463 L26.2551913,14.7646727 C28.0626092,16.4677065 30.2358141,17.3078699 32.5381202,17.3078699 Z M48.2062928,17.3532841 C43.5801637,17.3532841 40.3526317,13.6520239 40.3526317,9.17872166 L40.3526317,9.13330742 C40.3526317,4.6600052 43.6231974,0.913330742 48.2493266,0.913330742 C52.8754557,0.913330742 56.1029876,4.61459096 56.1029876,9.08789319 L56.1029876,9.13330742 C56.1029876,13.6066097 52.8324219,17.3532841 48.2062928,17.3532841 Z M48.2493266,14.7646727 C51.2401728,14.7646727 53.3273102,12.2668897 53.3273102,9.17872166 L53.3273102,9.13330742 C53.3273102,6.04513939 51.1971391,3.50194218 48.2062928,3.50194218 C45.2154465,3.50194218 43.1283092,5.99972515 43.1283092,9.08789319 L43.1283092,9.13330742 C43.1283092,12.2214755 45.2584803,14.7646727 48.2493266,14.7646727 Z M59.2913701,17.0807987 L61.8949125,17.0807987 L61.8949125,5.77265397 L70.2004281,17.0807987 L72.4166667,17.0807987 L72.4166667,1.18581616 L69.8131242,1.18581616 L69.8131242,12.1760612 L61.7442944,1.18581616 L59.2913701,1.18581616 L59.2913701,17.0807987 Z"></path>
                    <path d="M77.3203405,18.2666148 C81.7558244,17.5624112 82.6675627,16.1753435 82.6675627,13.9560352 C82.6675627,13.6359426 82.6429211,12.6970045 82.6429211,12.3342329 C82.6429211,10.6697517 83.3328853,9.77349252 85.5259857,9.77349252 L86.1666667,9.77349252 L86.1666667,8.49312232 L85.5259857,8.49312232 C83.3328853,8.49312232 82.6429211,7.59686318 82.6429211,5.93238192 C82.6429211,5.56961037 82.6675627,4.63067222 82.6675627,4.31057967 C82.6675627,2.09127133 81.7558244,0.70420361 77.3203405,0 L77,1.08831467 C80.4744624,1.85653679 80.8687276,2.60341941 80.8687276,4.5239747 C80.8687276,4.95076477 80.844086,5.67630788 80.844086,6.12443745 C80.844086,7.91695573 81.7558244,8.66383835 83.40681,9.13330742 C81.8297491,9.56009749 80.844086,10.3496591 80.844086,12.1421774 C80.844086,12.590307 80.8687276,13.3158501 80.8687276,13.7426401 C80.8687276,15.6631954 80.4744624,16.4100781 77,17.1783002 L77.3203405,18.2666148 Z" id="-}"></path>
                </g>
                <g id="Group-3">
                    <g id="Group">
                        <polyline id="Stroke-20" fill="#B36CDB" points="11.9166667 23.7465993 31.2601721 0 70.2535332 6.78274617 76.0833333 23.7442701"></polyline>
                        <path d="M0,23.8534784 L88,23.8534784" id="Stroke-113" stroke="#B36CDB" stroke-width="1.8358164"></path>
                    </g>
                    <g id="Group-2" transform="translate(0.000000, 53.993393)">
                        <polyline id="Stroke-19" fill="#B36CDB" points="75.1666667 0.916698895 57.8424541 21.0066071 18.0457631 14.4679 12.8333333 0.913330742"></polyline>
                        <path d="M0,0.913330742 L88,0.913330742" id="Stroke-115" stroke="#B36CDB" stroke-width="1.8358164"></path>
                    </g>
                </g>
            </g>
            <g id="N1QL" opacity="0.9" transform="translate(386.000000, 0.000000)">
                <g transform="translate(4.570966, 29.884162)" fill="#EB4970">
                    <path d="M8.2437276,17.1111111 L8.51851852,16.0916407 C5.31262445,15.3720145 4.94623656,14.672378 4.94623656,12.8733126 C4.94623656,12.4735202 4.9691358,11.7938733 4.9691358,11.3740914 C4.9691358,9.69496366 4.1218638,8.9953271 2.5876145,8.55555556 C4.05316607,8.15576324 4.9691358,7.41614746 4.9691358,5.73701973 C4.9691358,5.3172378 4.94623656,4.63759086 4.94623656,4.23779855 C4.94623656,2.43873313 5.31262445,1.73909657 8.51851852,1.0194704 L8.2437276,0 C4.1218638,0.659657321 3.2745918,1.95898235 3.2745918,4.03790239 C3.2745918,4.33774663 3.29749104,5.21728972 3.29749104,5.55711319 C3.29749104,7.11630322 2.65631223,7.95586708 0.595380327,7.95586708 L-2.84217094e-14,7.95586708 L-2.84217094e-14,9.15524403 L0.595380327,9.15524403 C2.65631223,9.15524403 3.29749104,9.99480789 3.29749104,11.5539979 C3.29749104,11.8938214 3.2745918,12.7733645 3.2745918,13.0732087 C3.2745918,15.1521288 4.1218638,16.4514538 8.2437276,17.1111111 Z" id="{-"></path>
                    <path d="M12.7777778,16.6208883 L15.4724804,16.6208883 L15.4724804,4.99560406 L24.0688047,16.6208883 L26.3626425,16.6208883 L26.3626425,0.280127331 L23.6679398,0.280127331 L23.6679398,11.5785963 L15.3165886,0.280127331 L12.7777778,0.280127331 L12.7777778,16.6208883 Z M32.3128248,16.6208883 L35.0297978,16.6208883 L35.0297978,0.16340761 L33.1368248,0.16340761 L28.9277438,1.56404426 L29.5067708,3.89843868 L32.3128248,3.08140064 L32.3128248,16.6208883 Z M54.9657097,15.056844 L53.2063583,17.1111111 L51.3356556,15.3603153 C50.0217097,16.340761 48.39598,16.9010156 46.5920881,16.9010156 C41.8039801,16.9010156 38.4634396,13.0959527 38.4634396,8.4971957 L38.4634396,8.45050781 C38.4634396,3.8517508 41.8485206,0 46.6366287,0 C51.4247367,0 54.7652772,3.80506291 54.7652772,8.40381992 L54.7652772,8.45050781 C54.7652772,10.3180233 54.1862502,12.0454752 53.1840881,13.4694558 L54.9657097,15.056844 Z M46.6366287,14.239806 C47.6610611,14.239806 48.5518719,13.9830226 49.3313313,13.5161437 L46.6366287,11.0883735 L48.39598,8.98741852 L51.1352232,11.6019403 C51.6251692,10.7148704 51.8924124,9.66439291 51.8924124,8.4971957 L51.8924124,8.45050781 C51.8924124,5.27573139 49.6876557,2.66120964 46.5920881,2.66120964 C43.4965206,2.66120964 41.3363044,5.2290435 41.3363044,8.40381992 L41.3363044,8.45050781 C41.3363044,11.6252842 43.5410611,14.239806 46.6366287,14.239806 Z M58.0652974,16.6208883 L69,16.6208883 L69,14.0063665 L60.8045406,14.0063665 L60.8045406,0.280127331 L58.0652974,0.280127331 L58.0652974,16.6208883 Z"></path>
                    <path d="M73.5569494,17.1111111 C77.6788132,16.4514538 78.5260852,15.1521288 78.5260852,13.0732087 C78.5260852,12.7733645 78.503186,11.8938214 78.503186,11.5539979 C78.503186,9.99480789 79.1443648,9.15524403 81.1823975,9.15524403 L81.7777778,9.15524403 L81.7777778,7.95586708 L81.1823975,7.95586708 C79.1443648,7.95586708 78.503186,7.11630322 78.503186,5.55711319 C78.503186,5.21728972 78.5260852,4.33774663 78.5260852,4.03790239 C78.5260852,1.95898235 77.6788132,0.659657321 73.5569494,0 L73.2592593,1.0194704 C76.4880526,1.73909657 76.8544405,2.43873313 76.8544405,4.23779855 C76.8544405,4.63759086 76.8315412,5.3172378 76.8315412,5.73701973 C76.8315412,7.41614746 77.6788132,8.11578401 79.2130625,8.55555556 C77.747511,8.95534787 76.8315412,9.69496366 76.8315412,11.3740914 C76.8315412,11.7938733 76.8544405,12.4735202 76.8544405,12.8733126 C76.8544405,14.672378 76.4880526,15.3720145 73.2592593,16.0916407 L73.5569494,17.1111111 Z" id="-}"></path>
                </g>
                <g id="Square">
                    <g id="Group-2">
                        <polyline id="Stroke-111" fill="#EB4970" points="16.6729377 20.4827364 21.0734023 0.314994104 81.7247861 13.618062 80.2266035 20.4839305"></polyline>
                        <path d="M0,20.5333333 L91.159287,20.5333333 L0,20.5333333 Z" id="Stroke-118" stroke="#EB4970" stroke-width="1.70230248"></path>
                    </g>
                    <g id="Group" transform="translate(0.000000, 53.089474)">
                        <polyline id="Stroke-110" fill="#EB4970" points="73.8218136 0.739604383 68.9878526 22.8942693 8.33646886 9.5912014 10.2681478 0.739604383"></polyline>
                        <path d="M0,0.810526316 L91.159287,0.810526316" id="Stroke-120" stroke="#EB4970" stroke-width="1.70230248"></path>
                    </g>
                </g>
            </g>
            <g id="Group-11" transform="translate(0.000000, 192.000000)">
                <polygon id="Stroke-32" fill="#00B9BE" fill-rule="nonzero" transform="translate(49.081021, 49.824526) rotate(11.000000) translate(-49.081021, -49.824526) " points="93.908681 58.5644604 88.0363406 73.6872055 4.25336185 41.0845911 10.1320853 25.961846"></polygon>
                <path d="M30.3148853,46.784376 L32.1531832,42.0701277" id="Stroke-44" stroke="#FFFFFF" stroke-width="0.7488" transform="translate(31.234034, 44.427252) rotate(11.000000) translate(-31.234034, -44.427252) "></path>
                <path d="M34.1159777,49.1804925 L35.9542756,44.4534337" id="Stroke-46" stroke="#FFFFFF" stroke-width="0.7488" transform="translate(35.035127, 46.816963) rotate(11.000000) translate(-35.035127, -46.816963) "></path>
                <path d="M37.9146258,51.5827788 L39.7529237,46.85572" id="Stroke-48" stroke="#FFFFFF" stroke-width="0.7488" transform="translate(38.833775, 49.219249) rotate(11.000000) translate(-38.833775, -49.219249) "></path>
                <path d="M41.7195396,53.9862831 L43.5578374,49.2592242" id="Stroke-50" stroke="#666666" stroke-width="0.7488" transform="translate(42.638689, 51.622754) rotate(11.000000) translate(-42.638689, -51.622754) "></path>
                <path d="M45.5319412,56.3847177 L47.3702391,51.6576589" id="Stroke-52" stroke="#666666" stroke-width="0.7488" transform="translate(46.451090, 54.021188) rotate(11.000000) translate(-46.451090, -54.021188) "></path>
                <path d="M49.3192801,58.7782806 L51.1575779,54.0512218" id="Stroke-54" stroke="#666666" stroke-width="0.7488" transform="translate(50.238429, 56.414751) rotate(11.000000) translate(-50.238429, -56.414751) "></path>
                <path d="M53.1247463,61.1760474 L54.9694271,56.4553939" id="Stroke-56" stroke="#FFFFFF" stroke-width="0.7488" transform="translate(54.047087, 58.815721) rotate(11.000000) translate(-54.047087, -58.815721) "></path>
                <path d="M56.9240641,63.5777836 L58.7623619,58.8507248" id="Stroke-58" stroke="#FFFFFF" stroke-width="0.7488" transform="translate(57.843213, 61.214254) rotate(11.000000) translate(-57.843213, -61.214254) "></path>
                <path d="M62.56101,61.2530111 L60.7227121,65.98007" id="Stroke-60" stroke="#FFFFFF" stroke-width="0.7488" transform="translate(61.641861, 63.616541) rotate(11.000000) translate(-61.641861, -63.616541) "></path>
                <path d="M64.5225824,68.3760687 L66.3608803,63.6490099" id="Stroke-62" stroke="#FFFFFF" stroke-width="0.7488" transform="translate(65.441731, 66.012539) rotate(11.000000) translate(-65.441731, -66.012539) "></path>
                <path d="M68.3287183,70.7732854 L70.1670162,66.0462266" id="Stroke-64" stroke="#FFFFFF" stroke-width="0.7488" transform="translate(69.247867, 68.409756) rotate(11.000000) translate(-69.247867, -68.409756) "></path>
                <path d="M72.1255331,73.1753952 L73.963831,68.4675521" id="Stroke-66" stroke="#FFFFFF" stroke-width="0.7488" transform="translate(73.044682, 70.821474) rotate(11.000000) translate(-73.044682, -70.821474) "></path>
                <path d="M55.2331719,48.5989112 L38.7459379,42.1936824 C37.2491182,41.6729259 35.609725,42.4319942 35.0332101,43.9127416 C34.4566951,45.393489 35.1490824,47.0667542 36.601257,47.7021792 L37.4821081,48.0416563 L23.5672145,81.2207412 C22.4270052,84.1773125 22.9452411,87.5197118 24.9267079,89.9888898 C26.9081747,92.4580677 30.0518403,93.6788974 33.1735164,93.1915042 C36.2951925,92.7041109 38.9206222,90.5825412 40.0608315,87.62597 L52.1884911,53.7551203 L53.0693421,54.0945975 C54.0600556,54.5281018 55.2077151,54.3830182 56.0603297,53.716486 C56.9129443,53.0499537 57.3338893,51.9687794 57.1573808,50.8987696 C56.9808723,49.8287597 56.2351945,48.9413751 55.214023,48.5861007" id="Fill-72" fill="#FFFFFF" fill-rule="nonzero" transform="translate(40.084070, 67.663448) rotate(11.000000) translate(-40.084070, -67.663448) "></path>
                <path d="M55.2331719,48.5989112 L38.7459379,42.1936824 C37.2491182,41.6729259 35.609725,42.4319942 35.0332101,43.9127416 C34.4566951,45.393489 35.1490824,47.0667542 36.601257,47.7021792 L37.4821081,48.0416563 L23.5672145,81.2207412 C22.4270052,84.1773125 22.9452411,87.5197118 24.9267079,89.9888898 C26.9081747,92.4580677 30.0518403,93.6788974 33.1735164,93.1915042 C36.2951925,92.7041109 38.9206222,90.5825412 40.0608315,87.62597 L52.1884911,53.7551203 L53.0693421,54.0945975 C54.0600556,54.5281018 55.2077151,54.3830182 56.0603297,53.716486 C56.9129443,53.0499537 57.3338893,51.9687794 57.1573808,50.8987696 C56.9808723,49.8287597 56.2351945,48.9413751 55.214023,48.5861007 L55.2331719,48.5989112 Z" id="Stroke-74" fill="#0174E0" fill-rule="nonzero" transform="translate(40.084070, 67.663448) rotate(11.000000) translate(-40.084070, -67.663448) "></path>
                <path d="M45.0979633,50.9779871 L50.593708,53.1173335" id="Stroke-76" stroke="#FFFFFF" stroke-width="1.4976" transform="translate(47.845836, 52.047660) rotate(11.000000) translate(-47.845836, -52.047660) "></path>
                <path d="M69.4141325,11.3277246 L54.7779623,48.9776593" id="Stroke-78" stroke="#0174E0" stroke-width="2.2464" transform="translate(62.096047, 30.152692) rotate(11.000000) translate(-62.096047, -30.152692) "></path>
                <polygon id="Fill-80" fill="#0174E0" fill-rule="nonzero" transform="translate(75.898115, 8.271752) rotate(11.000000) translate(-75.898115, -8.271752) " points="75.9938593 1.52384389 71.6087529 8.86423605 71.4108805 13.31587 75.8023699 15.0196609 78.6619444 11.6120792 80.3853486 3.23403997"></polygon>
                <path d="M41.9881257,55.1240846 L29.8477002,86.3623853" id="Stroke-82" stroke="#FFFFFF" stroke-width="0.7488" stroke-linecap="round" stroke-linejoin="round" transform="translate(35.917913, 70.743235) rotate(11.000000) translate(-35.917913, -70.743235) "></path>
                <path d="M44.8011166,57.4659175 L33.3819676,86.8595123" id="Stroke-84" stroke="#FFFFFF" stroke-width="0.7488" stroke-linecap="round" stroke-linejoin="round" transform="translate(39.091542, 72.162715) rotate(11.000000) translate(-39.091542, -72.162715) "></path>
                <path d="M38.9864442,53.7903051 L27.5609123,83.1903051" id="Stroke-86" stroke="#FFFFFF" stroke-width="0.7488" stroke-linecap="round" stroke-linejoin="round" transform="translate(33.273678, 68.490305) rotate(11.000000) translate(-33.273678, -68.490305) "></path>
            </g>
        </g>
    </g>
</svg>