<svg id="Layer_1" data-name="Layer 1" xmlns="http://www.w3.org/2000/svg" viewBox="0 0 200 80.93">
  <defs>
    <style>
      .cls-1 {
        fill: #fff;
      }
    </style>
  </defs>
  <title>white logoCisco Full Color</title>
  <g>
    <path id="path268" class="cls-1" d="M82.09,63.41H77.91V46.82h4.18Z"/>
    <g id="g272">
      <g id="g278">
        <path id="path280" class="cls-1" d="M115.85,51.57a7.43,7.43,0,0,0-3.52-.88,4.43,4.43,0,1,0,0,8.85,7.35,7.35,0,0,0,3.52-.88v4.46a13.57,13.57,0,0,1-3.81.59c-4.71,0-8.85-3.25-8.85-8.6A8.46,8.46,0,0,1,112,46.52a12.54,12.54,0,0,1,3.81.6Z"/>
      </g>
      <g id="g282">
        <path id="path284" class="cls-1" d="M72.15,51.57a7.39,7.39,0,0,0-3.52-.88,4.43,4.43,0,1,0,0,8.85,7.35,7.35,0,0,0,3.52-.88v4.46a13.59,13.59,0,0,1-3.82.59c-4.7,0-8.83-3.25-8.83-8.6a8.46,8.46,0,0,1,8.83-8.59,12.56,12.56,0,0,1,3.82.6Z"/>
      </g>
      <g id="g286">
        <path id="path288" class="cls-1" d="M129,50.75a4.37,4.37,0,1,0,4.33,4.36A4.29,4.29,0,0,0,129,50.75m8.77,4.36A8.77,8.77,0,1,1,129,46.52a8.51,8.51,0,0,1,8.77,8.59"/>
      </g>
      <g id="g290">
        <path id="path292" class="cls-1" d="M98,50.59a14.15,14.15,0,0,0-3.27-.51c-1.68,0-2.59.57-2.59,1.36,0,1,1.23,1.37,1.92,1.58l1.15.37c2.72.87,4,2.73,4,4.75,0,4.17-3.67,5.57-6.87,5.57a24.16,24.16,0,0,1-4.52-.46V59.43a15.28,15.28,0,0,0,4,.62c2.09,0,3-.61,3-1.55s-.82-1.32-1.86-1.65l-.9-.29c-2.33-.74-4.27-2.11-4.27-4.85,0-3.11,2.32-5.19,6.18-5.19a18,18,0,0,1,4.08.53Z"/>
      </g>
      <g id="g294">
        <path id="path296" class="cls-1" d="M55.06,29a2.08,2.08,0,0,0-4.16,0v4.35a2.08,2.08,0,1,0,4.16,0Z"/>
      </g>
      <g id="g298">
        <path id="path300" class="cls-1" d="M66.48,23.27a2.08,2.08,0,0,0-4.16,0V33.34a2.08,2.08,0,1,0,4.16,0Z"/>
      </g>
      <g id="g302">
        <path id="path304" class="cls-1" d="M77.89,15.45a2.08,2.08,0,0,0-4.15,0v22a2.08,2.08,0,1,0,4.15,0Z"/>
      </g>
      <g id="g306">
        <path id="path308" class="cls-1" d="M89.31,23.27a2.08,2.08,0,0,0-4.16,0V33.34a2.08,2.08,0,0,0,4.16,0Z"/>
      </g>
      <g id="g310">
        <path id="path312" class="cls-1" d="M100.72,29a2.08,2.08,0,0,0-4.15,0v4.35a2.08,2.08,0,1,0,4.15,0Z"/>
      </g>
      <g id="g314">
        <path id="path316" class="cls-1" d="M112.14,23.27a2.08,2.08,0,0,0-4.15,0V33.34a2.08,2.08,0,1,0,4.15,0Z"/>
      </g>
      <g id="g318">
        <path id="path320" class="cls-1" d="M123.56,15.45a2.07,2.07,0,0,0-4.14,0v22a2.07,2.07,0,1,0,4.14,0Z"/>
      </g>
      <g id="g322">
        <path id="path324" class="cls-1" d="M135,23.27a2.09,2.09,0,0,0-4.17,0V33.34a2.09,2.09,0,0,0,4.17,0Z"/>
      </g>
      <g id="g326">
        <path id="path328" class="cls-1" d="M146.38,29a2.07,2.07,0,1,0-4.14,0v4.35a2.07,2.07,0,1,0,4.14,0Z"/>
      </g>
      <g id="g330">
        <path id="path332" class="cls-1" d="M144,61.23v.26h-.74v1.92h-.31V61.49h-.74v-.26Z"/>
      </g>
      <g id="g334">
        <path id="path336" class="cls-1" d="M144.14,61.23h.48l.65,1.79h0l.64-1.79h.46v2.18h-.31V61.62h0l-.66,1.79h-.29l-.65-1.79h0v1.79h-.31Z"/>
      </g>
    </g>
  </g>
</svg>
