<?xml version="1.0" encoding="utf-8"?>
<!-- Generator: Adobe Illustrator 22.1.0, SVG Export Plug-In . SVG Version: 6.00 Build 0)  -->
<svg version="1.1" id="Layer_1" xmlns="http://www.w3.org/2000/svg" xmlns:xlink="http://www.w3.org/1999/xlink" x="0px" y="0px"
	 viewBox="0 0 300 121" style="enable-background:new 0 0 300 121;" xml:space="preserve">
<style type="text/css">
	.st0{fill:#FFFFFF;}
</style>
<path class="st0" d="M67.6,40.6H50.8c-1.2,0-2.1,0.8-2.3,2l-6.8,43.2c-0.1,0.8,0.4,1.5,1.2,1.6c0.1,0,0.1,0,0.2,0h8
	c1.2,0,2.1-0.8,2.3-2l1.8-11.7c0.2-1.1,1.2-2,2.3-2h5.3c11.1,0,17.5-5.4,19.2-16c0.8-4.7,0-8.3-2.1-10.9
	C77.5,42.1,73.3,40.6,67.6,40.6z M69.6,56.4c-0.9,6-5.5,6-10,6H57l1.8-11.3c0.1-0.7,0.7-1.2,1.4-1.2h1.2c3,0,5.9,0,7.4,1.7
	C69.6,52.7,69.9,54.3,69.6,56.4z M118,56.2H110c-0.7,0-1.3,0.5-1.4,1.2l-0.4,2.3l-0.6-0.8c-1.7-2.5-5.6-3.4-9.5-3.4
	c-8.9,0-16.5,6.8-18,16.2c-0.8,4.7,0.3,9.2,3,12.4c2.5,2.9,6,4.1,10.2,4.1c7.2,0,11.2-4.6,11.2-4.6l-0.4,2.2
	c-0.1,0.8,0.4,1.5,1.2,1.6c0.1,0,0.1,0,0.2,0h7.3c1.2,0,2.1-0.8,2.3-2l4.4-27.6c0.1-0.8-0.4-1.5-1.2-1.6
	C118.2,56.2,118.1,56.2,118,56.2z M106.8,71.9c-0.8,4.6-4.4,7.7-9.1,7.7c-2.3,0-4.2-0.8-5.4-2.2C91.1,76,90.6,74,91,71.8
	c0.7-4.6,4.4-7.8,9-7.8c2.3,0,4.2,0.8,5.4,2.2C106.6,67.7,107.1,69.7,106.8,71.9z M161,56.2h-8.1c-0.8,0-1.5,0.4-1.9,1l-11.2,16.5
	L135,57.9c-0.3-1-1.2-1.7-2.2-1.7h-8c-0.8,0-1.4,0.6-1.4,1.4c0,0.2,0,0.3,0.1,0.5l8.9,26.2L124,96.1c-0.4,0.6-0.3,1.5,0.3,2
	c0.2,0.2,0.5,0.3,0.8,0.3h8.1c0.8,0,1.5-0.4,1.9-1l27-38.9c0.4-0.6,0.3-1.5-0.4-2C161.6,56.3,161.3,56.2,161,56.2L161,56.2z"/>
<path class="st0" d="M187.9,40.6H171c-1.2,0-2.1,0.8-2.3,2l-6.8,43.2c-0.1,0.8,0.4,1.5,1.2,1.6c0.1,0,0.1,0,0.2,0h8.7
	c0.8,0,1.5-0.6,1.6-1.4l1.9-12.3c0.2-1.1,1.2-2,2.3-2h5.3c11.1,0,17.5-5.4,19.2-16c0.8-4.7,0-8.3-2.2-10.9
	C197.8,42.1,193.5,40.6,187.9,40.6z M189.8,56.4c-0.9,6-5.5,6-10,6h-2.5l1.8-11.3c0.1-0.7,0.7-1.2,1.4-1.2h1.2c3,0,5.9,0,7.4,1.7
	C189.9,52.7,190.2,54.3,189.8,56.4z M238.3,56.2h-8.1c-0.7,0-1.3,0.5-1.4,1.2l-0.4,2.3l-0.6-0.8c-1.7-2.5-5.6-3.4-9.5-3.4
	c-8.9,0-16.5,6.8-18,16.2c-0.8,4.7,0.3,9.2,3,12.4c2.5,2.9,6,4.1,10.2,4.1c7.2,0,11.2-4.6,11.2-4.6l-0.4,2.2
	c-0.1,0.8,0.4,1.5,1.2,1.6c0.1,0,0.1,0,0.2,0h7.3c1.2,0,2.1-0.8,2.3-2l4.4-27.6c0.1-0.8-0.4-1.5-1.2-1.6
	C238.4,56.2,238.3,56.2,238.3,56.2z M227,71.9c-0.8,4.6-4.4,7.7-9.1,7.7c-2.3,0-4.2-0.8-5.4-2.2c-1.2-1.4-1.6-3.4-1.3-5.7
	c0.7-4.6,4.4-7.8,9-7.8c2.3,0,4.2,0.8,5.4,2.2C226.9,67.7,227.4,69.7,227,71.9z M247.8,41.8l-6.9,44c-0.1,0.8,0.4,1.5,1.2,1.6
	c0.1,0,0.1,0,0.2,0h7c1.2,0,2.1-0.8,2.3-2l6.8-43.2c0.1-0.8-0.4-1.5-1.2-1.6c-0.1,0-0.1,0-0.2,0h-7.8
	C248.5,40.6,247.9,41.1,247.8,41.8z"/>
</svg>
