<svg xmlns="http://www.w3.org/2000/svg" width="130.002" height="130" viewBox="0 0 130.002 130"><path d="M89.375 24.375A24.375 24.375 0 1065 48.75a24.375 24.375 0 0024.375-24.375zM59.31 61.217C44.246 51.995 19.845 49.461 7.566 48.763A7.025 7.025 0 000 55.641v56.57a6.983 6.983 0 006.726 6.868c11.086.581 33.513 2.712 49.014 10.519a3.535 3.535 0 005.2-3.014V64.126a3.378 3.378 0 00-1.63-2.91zm63.123-12.454c-12.276.7-36.679 3.232-51.741 12.454a3.442 3.442 0 00-1.628 2.953v62.407a3.545 3.545 0 005.216 3.023c15.5-7.8 37.913-9.93 49-10.512a6.987 6.987 0 006.72-6.872V55.641a7.029 7.029 0 00-7.567-6.878z" fill="#0074e0"/></svg>