<svg xmlns="http://www.w3.org/2000/svg" width="146.263" height="130" viewBox="0 0 146.263 130"><path d="M59.535 129.936a1.98 1.98 0 002.542-1.27L97.908 5.402a2.1 2.1 0 00-1.27-2.541L86.728.065a2.1 2.1 0 00-2.54 1.271L48.352 124.599a2.039 2.039 0 001.525 2.541zM38.44 99.184l6.862-7.371a1.994 1.994 0 000-2.8L18.363 64.877l26.94-23.89a1.994 1.994 0 000-2.8l-6.862-7.37a2.013 2.013 0 00-2.8-.254L.572 63.603a1.994 1.994 0 000 2.8l35.073 32.781a2 2 0 002.795 0zm72.179 0l35.072-32.786a1.994 1.994 0 000-2.8l-35.072-33.035a2.013 2.013 0 00-2.8.254l-6.862 7.37a2 2 0 000 2.8l26.945 23.89-26.941 24.141a2 2 0 000 2.8l6.862 7.371a2 2 0 002.796-.005z" fill="#0074e0"/></svg>