<svg xmlns="http://www.w3.org/2000/svg" width="32.579" height="31.775" viewBox="0 0 32.579 31.775"><path data-name="Path 1" d="M16.288 0a16.291 16.291 0 00-5.148 31.747c.815.149 1.112-.353 1.112-.785 0-.387-.014-1.411-.022-2.771-4.531.985-5.487-2.183-5.487-2.183a4.315 4.315 0 00-1.809-2.383c-1.479-1.011.112-.99.112-.99a3.42 3.42 0 012.495 1.678 3.468 3.468 0 004.741 1.354 3.482 3.482 0 011.034-2.178c-3.617-.411-7.42-1.808-7.42-8.051a6.3 6.3 0 011.677-4.371 5.852 5.852 0 01.16-4.311s1.367-.438 4.479 1.67a15.448 15.448 0 018.156 0c3.11-2.108 4.475-1.67 4.475-1.67a5.854 5.854 0 01.163 4.311 6.286 6.286 0 011.674 4.371c0 6.258-3.809 7.635-7.438 8.038a3.889 3.889 0 011.106 3.017c0 2.178-.02 3.935-.02 4.469 0 .435.294.942 1.12.783A16.292 16.292 0 0016.288 0z" fill="#333" fill-rule="evenodd"/></svg>