<svg xmlns="http://www.w3.org/2000/svg" width="32.1" height="26.1" viewBox="0 0 32.1 26.1"><path d="M32.1 3.1a11.836 11.836 0 01-3.8 1A6.462 6.462 0 0031.2.5 12.606 12.606 0 0127 2.1 6.492 6.492 0 0022.2 0a6.594 6.594 0 00-6.6 6.6 7.719 7.719 0 00.2 1.5A18.458 18.458 0 012.3 1.2a6.294 6.294 0 00-.9 3.3A6.765 6.765 0 004.3 10a6.109 6.109 0 01-3-.8v.1a6.543 6.543 0 005.3 6.4 4.678 4.678 0 01-1.7.2 4.869 4.869 0 01-1.2-.1 6.679 6.679 0 006.1 4.6 12.917 12.917 0 01-8.2 2.8 9.151 9.151 0 01-1.6-.1 18.438 18.438 0 0010.1 3c12.1 0 18.7-10 18.7-18.7v-.8a13.336 13.336 0 003.3-3.4z" fill="#333"/></svg>