<svg xmlns="http://www.w3.org/2000/svg" width="130.002" height="130" viewBox="0 0 130.002 130"><defs><style>.a{fill:#0074e0;}</style></defs><path class="a" d="M89.375,24.375A24.375,24.375,0,1,0,65,48.75,24.375,24.375,0,0,0,89.375,24.375ZM59.31,61.217C44.246,51.995,19.845,49.461,7.566,48.763A7.025,7.025,0,0,0,0,55.641v56.57a6.983,6.983,0,0,0,6.726,6.868c11.086.581,33.513,2.712,49.014,10.519a3.535,3.535,0,0,0,5.2-3.014V64.126a3.378,3.378,0,0,0-1.63-2.91Zm63.123-12.454c-12.276.7-36.679,3.232-51.741,12.454a3.442,3.442,0,0,0-1.628,2.953v62.407A3.545,3.545,0,0,0,74.28,129.6c15.5-7.8,37.913-9.93,49-10.512A6.987,6.987,0,0,0,130,112.216V55.641A7.029,7.029,0,0,0,122.433,48.763Z"/></svg>