<svg width="180" height="126" viewBox="0 0 180 126" fill="none" xmlns="http://www.w3.org/2000/svg"><path d="M162 40.5c9.844 0 18-7.875 18-18 0-9.844-8.156-18-18-18-8.438 0-15.469 5.906-17.438 13.5H112.5V9c0-4.781-4.219-9-9-9h-27c-5.063 0-9 4.219-9 9v9H35.156c-1.968-7.594-9-13.5-17.156-13.5-10.125 0-18 8.156-18 18 0 10.125 7.875 18 18 18 8.156 0 15.188-5.625 17.156-13.5h31.782c-22.782 9-37.97 29.813-39.657 54H18c-5.063 0-9 4.219-9 9v27c0 5.062 3.938 9 9 9h27c4.781 0 9-3.938 9-9V90c0-4.781-4.219-9-9-9h-8.719c1.688-19.406 13.5-36.281 31.219-44.438.281 4.782 3.938 8.438 9 8.438h27c4.781 0 8.438-3.656 8.719-8.438C129.938 44.72 141.75 61.594 143.438 81H135c-5.062 0-9 4.219-9 9v27c0 5.062 3.938 9 9 9h27c4.781 0 9-3.938 9-9V90c0-4.781-4.219-9-9-9h-9.562c-1.688-24.188-16.876-45-39.657-54h31.781c1.969 7.875 9 13.5 17.438 13.5zM45 117H18V90h27v27zM18 31.5c-5.063 0-9-3.938-9-9 0-4.781 3.938-9 9-9 4.781 0 9 4.219 9 9 0 5.063-4.219 9-9 9zm85.5 4.5h-27V9h27v27zm58.5 81h-27V90h27v27zm0-103.5c4.781 0 9 4.219 9 9 0 5.063-4.219 9-9 9-5.062 0-9-3.938-9-9 0-4.781 3.938-9 9-9z" fill="#4287D6"/></svg>