<svg width="104" height="103" viewBox="0 0 104 103" fill="none" xmlns="http://www.w3.org/2000/svg"><path d="M103.467 22.285v-.62C91.159 20.137 83.886 12.877 82.356.59h-.621c-1.53 12.286-8.804 19.546-21.111 21.074v.62c12.307 1.527 19.58 8.788 21.11 21.074h.622c1.53-12.286 8.803-19.547 21.111-21.074zM.207 61c24.348 3.011 38.729 17.367 41.745 41.672h1.22C46.187 78.367 60.568 64.011 84.917 61v-1.217c-24.349-3.01-38.73-17.366-41.745-41.672h-1.22C38.936 42.418 24.544 56.773.206 59.784V61z" fill="#FC9C0C"/></svg>