<svg width="20" height="20" viewBox="0 0 20 20" fill="none" xmlns="http://www.w3.org/2000/svg"><path d="M14.132 11.755l-.16.04c.386 1.6.728 2.851.976 3.794.249.938.396 1.576.396 1.898a.433.433 0 01-.037.206l-.06.02a1.411 1.411 0 01-.536-.198c-.796-.415-2.256-1.454-4.614-2.9l-.084-.053-.085.056c-1.59.974-2.773 1.765-3.623 2.307-.335.221-.68.429-1.033.621a1.432 1.432 0 01-.54.204l-.062-.023a.438.438 0 01-.034-.198c0-.324.15-.965.404-1.909.252-.945.602-2.21.989-3.825l.028-.1-.08-.064C4.476 10.35 3.313 9.445 2.53 8.796a10.859 10.859 0 01-.881-.782c-.195-.198-.265-.35-.254-.384l.028-.043c.166-.089.349-.142.537-.155.88-.136 2.69-.15 5.494-.367l.1-.011.039-.094C8.38 5.074 8.9 3.657 9.28 2.716c.19-.468.348-.818.48-1.039a1.05 1.05 0 01.17-.228l.079-.046.079.046c.17.15.438.72.793 1.643.367.923.845 2.217 1.525 3.868l.04.094.101.008c2.13.17 3.682.217 4.696.288.503.037.875.082 1.101.144a.552.552 0 01.218.093l.028.043c.011.033-.06.186-.254.384-.579.61-2.07 1.702-4.312 3.617l-.076.065.023.098.16-.04.105.125c1.49-1.27 2.646-2.18 3.43-2.832.316-.253.618-.522.904-.808.206-.223.34-.392.35-.61a.373.373 0 00-.155-.299 1.584 1.584 0 00-.689-.226c-.929-.135-2.714-.146-5.503-.367l-.014.161.152-.062c-.78-1.88-1.29-3.295-1.674-4.241a8.287 8.287 0 00-.497-1.084 1.358 1.358 0 00-.232-.305.452.452 0 00-.3-.13.452.452 0 00-.298.13c-.277.268-.509.83-.884 1.765-.367.931-.847 2.216-1.536 3.868l.152.06-.014-.162c-2.129.167-3.68.215-4.707.288a6.748 6.748 0 00-1.166.153.946.946 0 00-.339.152.381.381 0 00-.152.3c.008.217.14.386.35.61.627.655 2.103 1.725 4.348 3.642l.107-.127-.158-.037c-.387 1.61-.734 2.87-.988 3.818-.254.954-.412 1.584-.415 1.993 0 .144.02.269.09.379a.39.39 0 00.333.17c.246-.028.483-.11.692-.24.842-.444 2.296-1.483 4.673-2.943l-.084-.141-.085.14c1.567.96 2.733 1.74 3.58 2.28.424.273.768.485 1.05.63.283.146.492.234.69.236a.39.39 0 00.333-.169.704.704 0 00.088-.384c0-.404-.156-1.036-.404-1.98-.249-.945-.593-2.193-.974-3.789l-.159.037.105.124-.105-.124zm5.64-4.524l.155-.05c-.187-.58-.667-.881-1.18-1.031-.517-.153-1.088-.175-1.54-.198l-.008.164.014-.164c-1.316-.099-2.598-.144-3.905-.24l-.011.164.15-.06c-.475-1.213-.927-2.428-1.43-3.622l-.15.065.153-.062c-.17-.415-.367-.949-.669-1.392-.302-.44-.734-.808-1.341-.805-.616 0-1.056.361-1.358.805-.31.443-.509.977-.675 1.392C7.5 3.39 7.047 4.603 6.55 5.81l.15.065-.012-.164c-1.304.096-2.589.141-3.905.24l.014.164-.008-.164c-.452.023-1.022.045-1.54.198-.513.15-.993.452-1.18 1.03-.046.143-.07.291-.07.441.014.969.954 1.666 1.525 2.163l.005.006c1.025.836 2.048 1.643 3.047 2.476l.105-.127-.158-.04c-.334 1.285-.667 2.522-1 3.807v.002c-.113.444-.274 1.017-.274 1.576-.003.514.144 1.036.621 1.384l.096-.136-.099.133c.245.183.542.28.848.277.77-.003 1.524-.523 2.075-.864 1.098-.692 2.194-1.432 3.31-2.118l-.086-.141-.09.14c1.093.687 2.166 1.401 3.287 2.093.553.342 1.299.853 2.067.859.304.002.602-.092.85-.269h.003c.471-.35.615-.88.612-1.395 0-.553-.155-1.12-.265-1.561a223.2 223.2 0 01-.974-3.784l-.158.037.104.127c.997-.833 2-1.643 3.021-2.476.574-.5 1.514-1.198 1.528-2.166 0-.15-.024-.298-.07-.44l-.156.05-.155.054c.037.116.053.226.053.336.015.726-.818 1.417-1.411 1.914l.107.125-.102-.125c-1.022.83-2.024 1.64-3.027 2.477l-.076.065.023.098c.31 1.263.643 2.528.977 3.787l.158-.04-.158.04c.113.443.254.988.254 1.482 0 .466-.119.859-.48 1.13l.099.133-.094-.133a1.127 1.127 0 01-.663.206c-.621.006-1.339-.455-1.892-.808-1.118-.689-2.188-1.4-3.287-2.095l-.085-.053-.087.056c-1.124.692-2.22 1.429-3.312 2.118-.55.347-1.282.822-1.898.819a1.064 1.064 0 01-.652-.218h-.003c-.367-.27-.485-.658-.488-1.118 0-.494.152-1.047.265-1.496.333-1.282.667-2.522 1-3.807l.025-.101-.079-.065c-1.002-.836-2.027-1.647-3.05-2.477l-.101.125.107-.125C1.15 9.041.316 8.35.33 7.624c0-.11.017-.22.057-.339.144-.443.497-.678.96-.819.46-.135 1.008-.164 1.463-.186 1.307-.096 2.592-.141 3.907-.237l.1-.009.039-.093c.502-1.217.954-2.431 1.429-3.62.17-.418.361-.932.638-1.327.28-.395.613-.664 1.09-.664.466 0 .793.266 1.073.664.27.395.466.91.632 1.327.5 1.189.952 2.4 1.429 3.617l.037.096.101.009c1.316.093 2.598.14 3.905.237h.003c.452.022 1.003.05 1.463.186.463.141.816.376.96.82l.155-.055z" fill="#00D770"/></svg>