<svg id="Layer_1" data-name="Layer 1" xmlns="http://www.w3.org/2000/svg" xmlns:xlink="http://www.w3.org/1999/xlink" viewBox="0 0 200 80.93">
  <defs>
    <style>
      .cls-1 {
        fill: none;
      }

      .cls-2 {
        clip-path: url(#clip-path);
      }

      .cls-3 {
        fill: #fff;
      }
    </style>
    <clipPath id="clip-path">
      <rect class="cls-1" x="25.57" y="31.55" width="148.85" height="19.8"/>
    </clipPath>
  </defs>
  <title>white logoAmadeus Full Color</title>
  <g id="g10">
    <g id="g12">
      <g id="g14">
        <g class="cls-2">
          <g id="g16">
            <path id="path22" class="cls-3" d="M119.17,50.44a35.46,35.46,0,0,0,14,.41V47.56a30.29,30.29,0,0,1-5.33.44,23.14,23.14,0,0,1-4.4-.36V43h8.44v-3.3H123.4V35.21a25.48,25.48,0,0,1,4.13-.3,34.31,34.31,0,0,1,5.27.44V32a30.31,30.31,0,0,0-5.77-.47,32.29,32.29,0,0,0-7.86.86v18Zm-60.33-7.5c-.11.27-.24.79-.33,1.1a10.93,10.93,0,0,0-.33-1.1l-3.74-9.6c-.63-1.59-1.62-1.79-3.43-1.79-.63,0-1.93.09-1.93.09L47.16,51.07h4.26l.94-13,4,9.87c.3.77.9,1.08,2.11,1.08s1.82-.31,2.12-1.08l4-9.87.94,13h4.26L67.94,31.64s-1.29-.09-1.92-.09c-1.81,0-2.8.2-3.44,1.79Zm-21.33,4A15.37,15.37,0,0,1,32.78,48c-1.76,0-3.08-.61-3.08-2.53,0-1.68.91-2.64,3.33-2.73l4.48-.16ZM35,31.55a19.41,19.41,0,0,0-7.92,1.52L28,36.26a19.62,19.62,0,0,1,5.77-1c2.45,0,3.71.69,3.71,3.11v1.37H33.74c-6.3,0-8.17,2.89-8.17,6.08,0,4.23,3.3,5.58,6.3,5.58a12.8,12.8,0,0,0,5.78-1.46c.19,0,.9.77,4.09.77V37.19c0-4-2.5-5.64-6.76-5.64ZM86,46.92A15.37,15.37,0,0,1,81.28,48c-1.76,0-3.08-.61-3.08-2.53,0-1.68.91-2.64,3.33-2.73L86,42.58v4.34ZM83.48,31.55a19.45,19.45,0,0,0-7.92,1.52l.91,3.19a19.62,19.62,0,0,1,5.77-1c2.45,0,3.71.69,3.71,3.11v1.37H82.24c-6.29,0-8.16,2.89-8.16,6.08,0,4.23,3.3,5.58,6.29,5.58a12.8,12.8,0,0,0,5.78-1.46c.19,0,.9.77,4.09.77V37.19c0-4-2.5-5.64-6.76-5.64Zm67.44,14.69a13.37,13.37,0,0,1-5.22,1.32c-2.91,0-3.41-1.32-3.41-4.35V31.72h-.63A30.81,30.81,0,0,0,138,32V43.76c0,5.14,1.26,7.59,6.49,7.59A14.16,14.16,0,0,0,151,49.81a9,9,0,0,0,4.18.85V32c-.31,0-2.37-.27-3.41-.27h-.86V46.24Zm9.3,4.42a27.56,27.56,0,0,0,6.32.69c3.5,0,7.9-1.18,7.9-5.91,0-3.08-2.29-4.4-6-5.75-2-.74-3.71-1.4-3.71-2.78,0-.65.5-1.95,3.05-1.95a13.71,13.71,0,0,1,4.84,1.1l1.07-3.16a14.6,14.6,0,0,0-6.29-1.35c-3.52,0-7,1.87-7,5.64s3.52,5.06,6.27,6c1.87.63,3.44,1.29,3.44,2.53s-.66,2.25-3.83,2.25a30,30,0,0,1-5.33-.58ZM100.69,35.24a18.65,18.65,0,0,1,3.38-.33c3.08,0,5.5,1.73,5.5,6.4S108.39,48,103.69,48a23.49,23.49,0,0,1-3-.22Zm3.58-3.69a26.81,26.81,0,0,0-7.84,1.16V50.77a42.29,42.29,0,0,0,7.12.58c7.59,0,10.53-3,10.53-10,0-6.1-3.74-9.76-9.81-9.76h0"/>
          </g>
        </g>
      </g>
    </g>
  </g>
</svg>
