<svg id="Layer_1" data-name="Layer 1" xmlns="http://www.w3.org/2000/svg" viewBox="0 0 200 80.93">
  <defs>
    <style>
      .cls-1 {
        fill: #fff;
      }
    </style>
  </defs>
  <title>white logoBD Full Color</title>
  <g>
    <path class="cls-1" d="M86.12,36.25a22.14,22.14,0,0,1,.44,4.22,20.85,20.85,0,0,1-41.69,0,20,20,0,0,1,.44-4.22l20.42,8.57ZM75.19,46.08h0a10,10,0,0,1-8.72,7.7,3.13,3.13,0,1,0-1.51,0,10,10,0,0,1-8.7-7.59h0l-4-1.79c.56,7.37,6.41,13.16,13.54,13.16s13.11-5.92,13.56-13.4Z"/>
    <path class="cls-1" d="M65.55,19.75a21,21,0,0,0-8.85,2L64,32.64Z"/>
    <path class="cls-1" d="M74.69,21.77a20.8,20.8,0,0,0-8.81-2l1.58,13Z"/>
    <path class="cls-1" d="M82,27.48a21,21,0,0,0-7-5.6L70.9,34Z"/>
    <path class="cls-1" d="M86,35.84a20.61,20.61,0,0,0-3.8-8l-8.52,8.81Z"/>
    <path class="cls-1" d="M49.29,27.72A20.53,20.53,0,0,0,45.37,36l12.25.76Z"/>
    <path class="cls-1" d="M56.44,21.92a20.83,20.83,0,0,0-6.95,5.55l11,6.56Z"/>
    <path class="cls-1" d="M116,39.78a7.37,7.37,0,0,0,4.44-7.05s0-7.95-8-8.17h-17v5.07h3.3V57.39H110.5s10.86,0,10.86-9.25C121.36,48.13,121.83,42,116,39.78ZM104.74,29.62H109c5.51,0,5.06,4.19,5.06,4.19C114,38,109,38,109,38h-4.28ZM115,47.14c0,4.38-4.56,4.73-4.56,4.73h-5.68V42.4h5.77C115.18,42.4,115,47.14,115,47.14Z"/>
    <path class="cls-1" d="M136.93,24.55H125v5.07h3.31V57.38h8.33S155.12,58.61,155.12,41C155.12,41,156.21,24.55,136.93,24.55Zm11.74,16.19c0,13.07-14.18,11.28-14.18,11.28V29.45c15.06-1.13,14.18,11.29,14.18,11.29Z"/>
  </g>
</svg>
