<svg id="Layer_1" data-name="Layer 1" xmlns="http://www.w3.org/2000/svg" viewBox="0 0 200 80.93">
  <defs>
    <style>
      .cls-1 {
        fill: #fff;
      }
    </style>
  </defs>
  <title>white logocomcast</title>
  <g id="layer1">
    <g id="g3947">
      <path id="path3775" class="cls-1" d="M110.91,44.42a10.8,10.8,0,1,0,8,18.06L117.39,61A8.47,8.47,0,0,1,111,64a8.73,8.73,0,0,1-.52-17.45h.47A8.31,8.31,0,0,1,117,49a1,1,0,1,0,1.59-1.37h0A10.78,10.78,0,0,0,110.91,44.42Z"/>
      <path id="path2998" class="cls-1" d="M37.62,44.42A10.8,10.8,0,1,0,37.67,66h0a10.81,10.81,0,0,0,7.93-3.54L44.1,61A8.44,8.44,0,0,1,37.67,64a8.73,8.73,0,0,1-.05-17.45A8.32,8.32,0,0,1,43.75,49a1,1,0,0,0,1.48.2,1.06,1.06,0,0,0,.2-1.49l-.09-.1A10.81,10.81,0,0,0,37.62,44.42Z"/>
      <path id="path3777" class="cls-1" d="M59.83,44.4a10.81,10.81,0,1,0,10.8,10.83A10.81,10.81,0,0,0,59.83,44.4Zm0,2.1a8.79,8.79,0,0,1,8.7,8.75,8.69,8.69,0,1,1-8.7-8.73Z"/>
      <path id="path3779" class="cls-1" d="M92.6,44.37a1,1,0,0,0-.93.65L85.36,60.46,79.08,45a1,1,0,0,0-2,.2l-3.6,19.63a1,1,0,0,0,2,.41h0v-.05l3-16.19,5.92,14.52a1,1,0,0,0,1.3.57,1.06,1.06,0,0,0,.57-.57L92.22,49l3.12,16.91H97.4L93.59,45.23A1,1,0,0,0,92.6,44.37Z"/>
      <path id="path3794" class="cls-1" d="M131,44.37a1,1,0,0,0-.92.65l-8,19.64a1,1,0,0,0,1.89.77h0l7.06-17.33,7.27,17.83h2.2L132,45A1,1,0,0,0,131,44.37Z"/>
      <path id="path3796" class="cls-1" d="M126.33,55.85v2.09h9.1V55.85Z"/>
      <path id="path3811" class="cls-1" d="M150,44.43a7.2,7.2,0,0,0-4.19,1.24,5,5,0,0,0-2,4.08,4.8,4.8,0,0,0,1.54,3.67,17.7,17.7,0,0,0,3.74,2.29h0a26.13,26.13,0,0,1,3.85,2.1,2.79,2.79,0,0,1,1.3,2.48,3.23,3.23,0,0,1-1.18,2.6,4.46,4.46,0,0,1-2.93,1,8.16,8.16,0,0,1-5.43-2.44l-1.54,1.42a10.07,10.07,0,0,0,7,3.14,6.55,6.55,0,0,0,4.29-1.46,5.55,5.55,0,0,0,1.91-4.22,5.15,5.15,0,0,0-2.11-4.13A24.13,24.13,0,0,0,150,53.86h0a17.28,17.28,0,0,1-3.29-2,2.33,2.33,0,0,1-.83-2.12,2.72,2.72,0,0,1,1.17-2.4,5.16,5.16,0,0,1,2.93-.84,7.86,7.86,0,0,1,3.72,1.1,1,1,0,0,0,1.48-.11,1,1,0,0,0-.11-1.47L155,46,155,46h0l-.09,0A9.57,9.57,0,0,0,150,44.43Z"/>
      <path id="path3813" class="cls-1" d="M160,44.54a1,1,0,0,0,0,2.09h12.11a1,1,0,1,0,0-2.09Z"/>
      <path id="path3815" class="cls-1" d="M165.08,45.86v20H167v-20Z"/>
      <g id="g3886">
        <g id="g3898">
          <path id="path3862" class="cls-1" d="M85.63,21a4.07,4.07,0,0,0-.2,5.75,3.81,3.81,0,0,0,.89.71L97.55,35.1,92.09,22.66a4,4,0,0,0-6.46-1.72"/>
          <path id="path3864" class="cls-1" d="M95.28,14.9a4,4,0,0,0-3.63,4.32,3.77,3.77,0,0,0,.29,1.19l5.62,13.24,2-13.93c.49-3.45-2.13-5-4.23-4.82"/>
          <path id="path3866" class="cls-1" d="M100.43,19.19h1.06s.57,0,.65.27c-.42.34-1.56.38-1.4,2.2l1.79,12,5.59-13.27a4,4,0,0,0-2.26-5.24,4.36,4.36,0,0,0-1.12-.27h-.31a4,4,0,0,0-4,3.9v.44"/>
          <path id="path3868" class="cls-1" d="M107.88,22.74l-5.29,12.31,11.24-7.72a4,4,0,1,0-5.93-4.56"/>
          <path id="path3870" class="cls-1" d="M112.56,29.08,102,36.4h13a4,4,0,0,0,3.61-5.25,4.08,4.08,0,0,0-3.76-2.82,4.26,4.26,0,0,0-2.29.73"/>
          <path id="path3872" class="cls-1" d="M85.36,36.4H98.14L87.59,29.09a4,4,0,0,0-6.16,2A4.1,4.1,0,0,0,84,36.24h0a3.87,3.87,0,0,0,1.31.21"/>
        </g>
      </g>
    </g>
  </g>
</svg>
