<svg id="Layer_1" data-name="Layer 1" xmlns="http://www.w3.org/2000/svg" viewBox="0 0 200 80.93">
  <defs>
    <style>
      .cls-1 {
        fill: #fff;
      }
    </style>
  </defs>
  <title>white logoDIRECTV</title>
  <g>
    <path class="cls-1" d="M101.65,33.64c0-8.69-9.72-14-30.28-15.76h0a1.42,1.42,0,0,0-1.49,1.33V48.42a1.42,1.42,0,0,0,1.49,1.33h1.34C85,48.18,93.65,45,98.14,41A9.63,9.63,0,0,0,101.65,33.64Z"/>
    <path class="cls-1" d="M125.07,17.88H113.16a19.3,19.3,0,0,1,6.41,3.74,10.23,10.23,0,0,1,3.4,5.11c.93,3.41-.41,7-3.67,9.76-4.35,3.73-11.13,6.82-20.14,9.18-5.14,1.36-11,3-17.41,4.08h43.32a1.41,1.41,0,0,0,1.48-1.33V19.21A1.4,1.4,0,0,0,125.07,17.88Z"/>
    <path class="cls-1" d="M74.1,56.26a1.8,1.8,0,0,0-1.43-.57H71.11v6.14h1.56a1.83,1.83,0,0,0,1.43-.57,4.09,4.09,0,0,0,.45-2.56C74.55,57.54,74.54,56.74,74.1,56.26ZM75,62.19A3,3,0,0,1,72.8,63h-3V54.54h3a3,3,0,0,1,2.18.79c.91.91.85,2.15.85,3.37S75.89,61.27,75,62.19Z"/>
    <rect class="cls-1" x="79.36" y="54.54" width="1.28" height="8.44"/>
    <path class="cls-1" d="M87.61,55.69H85.72v2.64h1.89a1.33,1.33,0,1,0,0-2.64ZM89.1,63l-1.78-3.56h-1.6V63H84.43V54.54h3.28A2.41,2.41,0,0,1,90.33,57a2.24,2.24,0,0,1-1.69,2.25l2,3.73Z"/>
    <polygon class="cls-1" points="93.85 62.98 93.85 54.54 99.25 54.54 99.25 55.69 95.13 55.69 95.13 58.15 98.64 58.15 98.64 59.29 95.13 59.29 95.13 61.83 99.25 61.83 99.25 62.98 93.85 62.98"/>
    <path class="cls-1" d="M105.24,63.05a3.06,3.06,0,0,1-2.22-.9c-.83-.83-.82-1.77-.82-3.39s0-2.56.82-3.39a3.06,3.06,0,0,1,2.22-.9,2.9,2.9,0,0,1,3,2.59H107a1.69,1.69,0,0,0-1.71-1.44,1.63,1.63,0,0,0-1.24.51c-.42.45-.51.93-.51,2.63s.09,2.18.51,2.63a1.66,1.66,0,0,0,1.24.51A1.7,1.7,0,0,0,107,60.45h1.29A2.91,2.91,0,0,1,105.24,63.05Z"/>
    <polygon class="cls-1" points="115.32 56.39 115.32 62.98 113.24 62.98 113.24 56.39 111.17 56.39 111.17 54.54 117.39 54.54 117.39 56.39 115.32 56.39"/>
    <polygon class="cls-1" points="124.2 62.98 122.66 62.98 119.87 54.54 122.02 54.54 123.44 59.26 124.84 54.54 127 54.54 124.2 62.98"/>
    <path class="cls-1" d="M128.92,55.42h.15c.17,0,.32,0,.32-.18s-.14-.17-.27-.17h-.2v.35Zm-.21-.54h.47c.28,0,.42.11.42.36a.32.32,0,0,1-.31.36l.35.51h-.24l-.36-.5h-.12v.5h-.21V54.88Zm.4,1.49a.81.81,0,0,0,.83-.85.83.83,0,1,0-.83.85Zm0-1.91a1.06,1.06,0,1,1-1.05,1.06A1.06,1.06,0,0,1,129.11,54.46Z"/>
  </g>
</svg>
