<svg id="Layer_1" data-name="Layer 1" xmlns="http://www.w3.org/2000/svg" viewBox="0 0 200 80.93">
  <defs>
    <style>
      .cls-1 {
        fill: #fff;
      }
    </style>
  </defs>
  <title>white logoebay </title>
  <g>
    <path id="e" class="cls-1" d="M60.68,28.49C53.2,28.49,47,31.66,47,41.24c0,7.58,4.19,12.36,13.91,12.36,11.43,0,12.17-7.53,12.17-7.53H67.5s-1.18,4-7,4c-4.71,0-8.09-3.18-8.09-7.63H73.62v-2.8c0-4.41-2.79-11.2-12.94-11.2Zm-.19,3.57C65,32.06,68,34.81,68,38.92H52.57C52.57,34.55,56.56,32.06,60.49,32.06Z"/>
    <path id="b" class="cls-1" d="M73.62,19.22V48.79c0,1.68-.12,4-.12,4h5.29s.19-1.7.19-3.24c0,0,2.61,4.08,9.71,4.08,7.48,0,12.55-5.19,12.55-12.63,0-6.91-4.66-12.48-12.54-12.48-7.38,0-9.67,4-9.67,4V19.22Zm13.72,13c5.07,0,8.3,3.77,8.3,8.82,0,5.43-3.73,9-8.27,9C82,50,79,45.78,79,41.09,79,36.72,81.65,32.22,87.34,32.22Z"/>
    <path id="a" class="cls-1" d="M114.38,28.49c-11.26,0-12,6.16-12,7.15H108s.29-3.6,6-3.6c3.7,0,6.57,1.69,6.57,5v1.16H114c-8.72,0-13.33,2.55-13.33,7.72s4.26,7.87,10,7.87c7.84,0,10.37-4.34,10.37-4.34,0,1.73.13,3.43.13,3.43h5s-.19-2.11-.19-3.46V37.73c0-7.64-6.16-9.24-11.59-9.24Zm6.18,13.13v1.55c0,2-1.24,7-8.56,7-4,0-5.73-2-5.73-4.33,0-4.22,5.79-4.25,14.29-4.25Z"/>
    <path id="y" class="cls-1" d="M123,29.45h6.31l9,18.12,9-18.12H153L136.6,61.71h-6l4.74-9Z"/>
  </g>
</svg>
