<svg id="Layer_1" data-name="Layer 1" xmlns="http://www.w3.org/2000/svg" viewBox="0 0 200 80.93">
  <defs>
    <style>
      .cls-1 {
        fill: #fff;
      }
    </style>
  </defs>
  <title>white logoLinkedin </title>
  <g>
    <path class="cls-1" d="M161.48,49.9a.54.54,0,0,0,.55-.57c0-.41-.25-.6-.75-.6h-.82v2.13h.31v-.93h.38l.59.92h.33l-.63-1h0m-.35-.21h-.36V49h.45c.23,0,.5,0,.5.34S161.45,49.69,161.13,49.69Z"/>
    <path class="cls-1" d="M161.16,47.78a2,2,0,1,0,2,2,2,2,0,0,0-2-2m0,3.77a1.76,1.76,0,1,1,1.72-1.75A1.72,1.72,0,0,1,161.16,51.55Z"/>
    <polyline class="cls-1" points="36.82 29.69 41.55 29.69 41.55 46.92 50.31 46.92 50.31 51.29 36.82 51.29 36.82 29.69"/>
    <path class="cls-1" d="M52.4,36.65h4.54V51.28H52.4Zm2.27-7.28A2.64,2.64,0,1,1,52,32a2.64,2.64,0,0,1,2.64-2.64"/>
    <polyline class="cls-1" points="75.95 29.69 80.49 29.69 80.49 42.6 85.64 36.64 91.22 36.64 85.25 43.42 91.09 51.29 85.38 51.29 80.55 44.05 80.49 44.05 80.49 51.29 75.95 51.29 75.95 29.69"/>
    <path class="cls-1" d="M59.46,36.65h4.36v2h.06a4.78,4.78,0,0,1,4.31-2.36c4.6,0,5.45,3,5.45,7v8H69.1V44.17c0-1.7,0-3.88-2.37-3.88S64,42.14,64,44.05v7.23H59.46V36.65"/>
    <path class="cls-1" d="M100.79,42.26A2.73,2.73,0,0,0,98,39.48a3,3,0,0,0-3.22,2.78h6m3.85,6.49a8,8,0,0,1-6.22,2.91c-4.54,0-8.18-3-8.18-7.73s3.64-7.73,8.18-7.73c4.25,0,6.91,3,6.91,7.73v1.42H94.78a3.4,3.4,0,0,0,3.43,2.85,3.86,3.86,0,0,0,3.24-1.78Z"/>
    <path class="cls-1" d="M114.8,40.19a3.44,3.44,0,0,0-3.63,3.72,3.64,3.64,0,1,0,7.27,0,3.44,3.44,0,0,0-3.64-3.72m7.83,11.09h-4.19V49.34h-.06a5.7,5.7,0,0,1-4.51,2.3c-4.37,0-7.25-3.15-7.25-7.6,0-4.1,2.55-7.85,6.73-7.85A5.5,5.5,0,0,1,118,38.12h.06V29.69h4.55Z"/>
    <path class="cls-1" d="M155.57,25.16a2.24,2.24,0,0,1,2.27,2.21V53.61a2.24,2.24,0,0,1-2.27,2.21H129.44a2.24,2.24,0,0,1-2.27-2.21V27.37a2.24,2.24,0,0,1,2.27-2.21h26.13M131.72,51.29h4.55V36.65h-4.55ZM134,29.38A2.64,2.64,0,1,0,136.63,32,2.63,2.63,0,0,0,134,29.38m5.13,7.27V51.29h4.55V44.05c0-1.91.36-3.76,2.72-3.76s2.37,2.18,2.37,3.88v7.12h4.55v-8c0-3.94-.86-7-5.46-7a4.77,4.77,0,0,0-4.3,2.36h-.07v-2h-4.36"/>
  </g>
</svg>
