<svg id="Layer_1" data-name="Layer 1" xmlns="http://www.w3.org/2000/svg" viewBox="0 0 200 80.93">
  <defs>
    <style>
      .cls-1 {
        fill: #fff;
      }
    </style>
  </defs>
  <title>white logoMarriott International</title>
  <g>
    <path class="cls-1" d="M57.27,37.1c-.18.38-.34.71-.49,1-.82,1.72-1.58,3.47-2.44,5.17a13,13,0,0,1-2.44,3.43,6.23,6.23,0,0,1-5.08,1.8,11.68,11.68,0,0,1-3.09-.72c-.15,0-.18-.1-.11-.26.78-1.64,1.54-3.29,2.3-5,.08-.15.14-.16.29-.11a6.22,6.22,0,0,0,3.2.21,4.78,4.78,0,0,0,2.94-2,19.29,19.29,0,0,0,1.92-3.4c.48-1,1-2.09,1.46-3.13a.44.44,0,0,0,0-.39q-1.62-3.45-3.22-6.91l-.78-1.66c-.07-.15,0-.21.1-.28l4.91-2.29c.18-.08.24-.05.32.12Q60.42,30,63.79,37.22c0,.07.07.14.13.25l.42-.89,1.14-2.44a.31.31,0,0,0,0-.31q-2-4.23-3.94-8.46c-.16-.35-.17-.36.2-.53q2.37-1.1,4.74-2.22c.17-.08.23,0,.3.12l6.85,14.7,4.17,9c.09.18.06.21-.13.21h-6a.3.3,0,0,1-.31-.2l-4.2-9L67,37.16c-.09,0-.09.06-.11.1l-1.5,3.22a.28.28,0,0,0,0,.29l2.61,5.61c.1.23.1.23-.14.23h-6a.3.3,0,0,1-.32-.2c-1.39-3-2.8-6-4.2-9Z"/>
    <path class="cls-1" d="M79.57,34.31c0-1.13,0-2.22,0-3.31,0-.13.09-.16.17-.2a12.16,12.16,0,0,1,2.57-.87,13.4,13.4,0,0,1,3.4-.34,8,8,0,0,1,3.3.69,4.21,4.21,0,0,1,2.38,3.21,6.92,6.92,0,0,1,.1,1.36V46.34c0,.21,0,.27-.26.27h-3.7c-.3,0-.3,0-.34-.3S87.06,45.46,87,45c0,0,0-.08,0-.15a10.13,10.13,0,0,1-.82.79,5.62,5.62,0,0,1-3.24,1.26,4.4,4.4,0,0,1-3.32-1,4.35,4.35,0,0,1-1.48-2.74,5.94,5.94,0,0,1,.63-3.9,6.38,6.38,0,0,1,2.52-2.42,12.84,12.84,0,0,1,4.22-1.38l1.23-.17c.13,0,.15-.06.15-.17A1.93,1.93,0,0,0,85.15,33a6.29,6.29,0,0,0-3.71.33A9.11,9.11,0,0,0,79.57,34.31Zm7.27,5.47c0-.22,0-.43,0-.65s.09-.44,0-.57-.36,0-.55,0a5.5,5.5,0,0,0-2.14.58,2.41,2.41,0,0,0-1.38,2.62A1.83,1.83,0,0,0,85,43.35a2.17,2.17,0,0,0,1.68-1.58A5.81,5.81,0,0,0,86.84,39.78Z"/>
    <path class="cls-1" d="M137,38.48c0,.6,0,1.41,0,2.21A7.13,7.13,0,0,1,135,45.26a5.75,5.75,0,0,1-3.07,1.55,8.21,8.21,0,0,1-4-.19,5.62,5.62,0,0,1-3.74-3.55,8.78,8.78,0,0,1-.57-3c0-1.27,0-2.54,0-3.8a8,8,0,0,1,1-3.76,5.52,5.52,0,0,1,3.58-2.67,8.18,8.18,0,0,1,4.39.07,5.72,5.72,0,0,1,4,4.08,9.23,9.23,0,0,1,.4,2.72Zm-4.69-.21c0-.87,0-1.74,0-2.61A4.51,4.51,0,0,0,132,34a1.84,1.84,0,0,0-.86-1,1.8,1.8,0,0,0-2.54,1.08,5.57,5.57,0,0,0-.3,2c0,1.45,0,2.89,0,4.34a5.8,5.8,0,0,0,.29,2,1.83,1.83,0,0,0,.81,1,1.79,1.79,0,0,0,2.59-.93,4.63,4.63,0,0,0,.31-1.64C132.3,40,132.29,39.15,132.29,38.27Z"/>
    <path class="cls-1" d="M154.06,24.46v3.61c0,.54,0,1.08,0,1.62,0,.19,0,.26.25.26.63,0,1.25,0,1.88,0,.16,0,.23,0,.23.21,0,.84,0,1.67,0,2.5,0,.16,0,.21-.2.2-.63,0-1.25,0-1.88,0-.22,0-.29,0-.28.28,0,2.27,0,4.54,0,6.81s0,4.28,0,6.42c0,.19,0,.26-.26.26h-4.16c-.2,0-.24-.06-.24-.25q0-6.61,0-13.23c0-.32,0-.28-.29-.28h-1c-.13,0-.17,0-.17-.17V30.13c0-.16.06-.19.21-.19.36,0,.72,0,1.08,0,.17,0,.21-.05.21-.22,0-1,0-2,0-2.94,0-.11,0-.19.14-.24l4.4-2.06Z"/>
    <path class="cls-1" d="M144.2,24.47v1.34c0,1.3,0,2.6,0,3.89,0,.2.06.25.25.25.64,0,1.27,0,1.9,0,.17,0,.21,0,.21.21v2.5c0,.15,0,.2-.19.2-.65,0-1.29,0-1.93,0-.21,0-.24.07-.24.26,0,2.62,0,5.25,0,7.87v5.38c0,.19,0,.26-.25.26h-4.13c-.22,0-.27-.06-.27-.27V33.13c0-.32,0-.28-.28-.28h-1c-.13,0-.17,0-.17-.16V30.1c0-.13.06-.16.17-.16.36,0,.71,0,1.06,0s.27-.07.27-.28c0-1,0-1.91,0-2.87a.24.24,0,0,1,.15-.26l4.4-2.05Z"/>
    <path class="cls-1" d="M109.88,31.67a8.36,8.36,0,0,1,.56-.74,3.92,3.92,0,0,1,4.23-1.14.19.19,0,0,1,.15.21q0,1.82,0,3.63c0,.2-.09.15-.2.1a4.57,4.57,0,0,0-2.05-.48,3.06,3.06,0,0,0-2.51,1.38A.46.46,0,0,0,110,35V46.3c0,.31,0,.31-.31.31h-4.09c-.2,0-.25-.06-.25-.25q0-8.09,0-16.17c0-.2,0-.25.25-.25h3.8c.17,0,.23,0,.25.21C109.7,30.64,109.79,31.12,109.88,31.67Z"/>
    <path class="cls-1" d="M98.85,31.6a12,12,0,0,1,.82-.91,3.79,3.79,0,0,1,2.67-1.1,4.33,4.33,0,0,1,1.29.19.21.21,0,0,1,.17.24c0,1.19,0,2.39,0,3.58,0,.18,0,.2-.2.13a4.38,4.38,0,0,0-2.13-.48,3.09,3.09,0,0,0-2.42,1.37.47.47,0,0,0-.06.31V46.28c0,.33,0,.33-.32.33H94.58c-.18,0-.24,0-.24-.23q0-8.1,0-16.2c0-.19,0-.24.25-.24h3.78c.16,0,.24,0,.26.21C98.69,30.63,98.77,31.12,98.85,31.6Z"/>
    <path class="cls-1" d="M121.21,38.27v7.66c0,.17,0,.35,0,.53s0,.15-.16.15h-4.32c-.15,0-.16-.08-.16-.19,0-.62,0-1.23,0-1.84V30.25c0-.3,0-.31.3-.31h4.05c.31,0,.31,0,.31.32Z"/>
    <path class="cls-1" d="M97.86,56V52.63c0-.16,0-.22.2-.22s.6,0,.91,0c.11,0,.17,0,.17.15,0,1.85,0,3.69,0,5.53,0,.12,0,.16-.16.15h-.82c-.12,0-.17-.07-.23-.15L95.42,54.8l-.19-.22v.29c0,1.06,0,2.11,0,3.17,0,.18,0,.22-.23.22a6.17,6.17,0,0,0-.86,0c-.19,0-.19-.08-.19-.23V52.57c0-.12,0-.16.15-.15H95c.12,0,.17.07.24.15l2.5,3.29Z"/>
    <path class="cls-1" d="M71.27,55.91V54.5c0-.62,0-1.24,0-1.86,0-.17,0-.24.22-.23a5.89,5.89,0,0,0,.84,0c.17,0,.22,0,.22.22,0,1.23,0,2.47,0,3.7,0,.57,0,1.15,0,1.72,0,.15,0,.21-.19.21a2.74,2.74,0,0,1-.87,0c-.24-.11-.37-.43-.55-.65l-2.24-2.94,0,0c-.06.06,0,.14,0,.2,0,1.08,0,2.16,0,3.23,0,.17,0,.22-.21.22s-.6,0-.9,0c-.13,0-.17,0-.17-.16V52.58c0-.12,0-.18.16-.16h0a2.83,2.83,0,0,1,1,0c.27.12.41.49.61.74l2,2.57A.31.31,0,0,0,71.27,55.91Z"/>
    <path class="cls-1" d="M129.11,55.92a.45.45,0,0,0,0-.25v-3c0-.18,0-.24.22-.23a5.47,5.47,0,0,0,.81,0c.18,0,.23.05.23.22,0,1.21,0,2.41,0,3.61v1.81c0,.15,0,.21-.19.21a3.39,3.39,0,0,1-.85,0c-.26-.1-.38-.42-.55-.65l-2.27-3c-.07.07,0,.15,0,.21,0,1.07,0,2.14,0,3.21,0,.2-.06.25-.25.24a7.85,7.85,0,0,0-.84,0c-.14,0-.2,0-.2-.19,0-1.82,0-3.65,0-5.48,0-.14.05-.18.18-.17s.53,0,.8,0a.37.37,0,0,1,.36.19L129,55.77A.43.43,0,0,0,129.11,55.92Z"/>
    <path class="cls-1" d="M120,52.32a3,3,0,0,1,.57,6,3,3,0,0,1-2.79-.84,2.85,2.85,0,0,1-.71-3.08,2.88,2.88,0,0,1,2.38-2A2.62,2.62,0,0,1,120,52.32Zm-1.74,3a1.74,1.74,0,0,0,1.76,1.83,1.73,1.73,0,0,0,1.73-1.81A1.77,1.77,0,0,0,120,53.51,1.71,1.71,0,0,0,118.3,55.33Z"/>
    <path class="cls-1" d="M92,58.25H90.64c-.12,0-.16-.08-.2-.15l-1-1.56a.28.28,0,0,0-.28-.16h-.64c-.15,0-.19,0-.19.19,0,.49,0,1,0,1.46,0,.18-.06.22-.23.22a5.89,5.89,0,0,0-.84,0c-.17,0-.22,0-.22-.22,0-1,0-2,0-3,0-.81,0-1.62,0-2.43,0-.15,0-.21.2-.21h2.58a2.37,2.37,0,0,1,1,.23,1.74,1.74,0,0,1,1,1.78,1.78,1.78,0,0,1-1.11,1.69c-.18.07-.06.14,0,.21l1.2,1.75ZM88.29,54.4c0,.24,0,.47,0,.71s0,.14.14.14c.44,0,.87,0,1.31,0a.8.8,0,0,0,.82-.76.77.77,0,0,0-.76-.88,12.84,12.84,0,0,0-1.39,0c-.1,0-.12.06-.11.14Z"/>
    <path class="cls-1" d="M80.45,55.33c0-.89,0-1.79,0-2.68,0-.17,0-.24.23-.24q2,0,3.93,0c.19,0,.25.05.23.24a3.85,3.85,0,0,0,0,.68c0,.21-.07.24-.25.24H82c-.18,0-.24,0-.23.23a5.93,5.93,0,0,1,0,.73c0,.16,0,.2.2.2h2.32c.19,0,.24.06.23.24a5.93,5.93,0,0,0,0,.73c0,.14,0,.19-.19.19H82c-.21,0-.25.07-.24.25a6.26,6.26,0,0,1,0,.75c0,.19,0,.25.24.25h2.7c.17,0,.23,0,.22.22a6.42,6.42,0,0,0,0,.76c0,.13,0,.18-.17.18h-4.1c-.17,0-.17-.09-.17-.21C80.46,57.14,80.45,56.24,80.45,55.33Z"/>
    <path class="cls-1" d="M106.81,58.25h-1.19c-.1,0-.13,0-.16-.13-.14-.34-.28-.67-.41-1a.24.24,0,0,0-.26-.18h-2.08a.23.23,0,0,0-.26.18l-.4,1c0,.07-.06.15-.17.14h-1.2l.46-1.1q1-2.26,1.93-4.55a.31.31,0,0,1,.34-.23,6.77,6.77,0,0,0,.78,0,.21.21,0,0,1,.23.15q1.17,2.77,2.36,5.55A.21.21,0,0,1,106.81,58.25Zm-3.06-4.33L103,55.69c0,.11,0,.13.09.13h1.24c.13,0,.15,0,.1-.16Z"/>
    <path class="cls-1" d="M137.38,58.25c-.18,0-.43.09-.59,0s-.18-.36-.25-.55-.16-.38-.23-.57a.21.21,0,0,0-.23-.16H134a.2.2,0,0,0-.22.16c-.13.34-.28.67-.41,1a.23.23,0,0,1-.24.17h-.86c-.28,0-.28,0-.17-.24l1.26-3c.36-.82.71-1.65,1.06-2.48a.23.23,0,0,1,.26-.17c.26,0,.53,0,.79,0a.24.24,0,0,1,.28.19c.6,1.42,1.21,2.84,1.81,4.27l.53,1.23c.06.14.06.21-.12.2A4.73,4.73,0,0,0,137.38,58.25ZM135,53.92l-.72,1.74c0,.09,0,.15.09.15h1.29c.08,0,.09,0,.06-.1Z"/>
    <path class="cls-1" d="M109.58,52.42h2.19c.17,0,.22.05.21.22s0,.51,0,.77,0,.22-.21.21c-.45,0-.9,0-1.35,0-.17,0-.22,0-.22.22,0,1.4,0,2.8,0,4.21,0,.18,0,.24-.23.23a5.89,5.89,0,0,0-.84,0c-.19,0-.22-.06-.22-.23,0-1.38,0-2.77,0-4.16,0-.2,0-.28-.26-.27-.45,0-.89,0-1.33,0-.14,0-.2,0-.19-.18s0-.55,0-.82,0-.2.2-.2Z"/>
    <path class="cls-1" d="M76.5,52.42h2.22c.15,0,.2.05.19.2s0,.52,0,.78,0,.23-.21.22c-.45,0-.89,0-1.33,0-.18,0-.24,0-.24.23,0,1.4,0,2.79,0,4.18,0,.2,0,.26-.24.25a5.89,5.89,0,0,0-.84,0c-.17,0-.21-.06-.21-.22,0-1.39,0-2.78,0-4.18,0-.19,0-.27-.25-.26-.44,0-.88,0-1.33,0-.15,0-.21,0-.2-.19s0-.55,0-.82,0-.19.19-.18Z"/>
    <path class="cls-1" d="M139.55,55.32c0-.9,0-1.8,0-2.7,0-.17,0-.21.21-.21a6.46,6.46,0,0,0,.88,0c.19,0,.2.09.2.23,0,1.38,0,2.77,0,4.16,0,.21,0,.28.28.28.81,0,1.62,0,2.43,0,.16,0,.22,0,.21.21s0,.53,0,.79,0,.19-.17.19h-3.85c-.15,0-.18-.06-.18-.2Z"/>
    <path class="cls-1" d="M114.94,55.34c0,.9,0,1.8,0,2.7,0,.17,0,.23-.23.22s-.59,0-.88,0c-.13,0-.19,0-.19-.16,0-1.84,0-3.67,0-5.51,0-.13,0-.17.16-.16.31,0,.62,0,.93,0,.16,0,.2.05.19.21Z"/>
    <path class="cls-1" d="M63.63,55.32c0-.9,0-1.8,0-2.7,0-.16,0-.21.21-.21a6.46,6.46,0,0,0,.88,0c.19,0,.2.08.2.23,0,1.47,0,3,0,4.42,0,.34,0,.68,0,1,0,.13,0,.18-.18.18-.3,0-.6,0-.9,0s-.21-.06-.21-.22C63.64,57.14,63.63,56.23,63.63,55.32Z"/>
    <path class="cls-1" d="M88.29,54.4v-.69c0-.08,0-.14.11-.14a12.84,12.84,0,0,1,1.39,0,.77.77,0,0,1,.76.88.8.8,0,0,1-.82.76c-.44,0-.87,0-1.31,0-.1,0-.14,0-.14-.14S88.29,54.64,88.29,54.4Z"/>
  </g>
</svg>
