<svg id="Layer_1" data-name="Layer 1" xmlns="http://www.w3.org/2000/svg" viewBox="0 0 200 80.93">
  <defs>
    <style>
      .cls-1 {
        fill: #fff;
      }

      .cls-2 {
        fill: #fcfcfc;
      }
    </style>
  </defs>
  <title>white logopg&amp;amp;e</title>
  <g>
    <path class="cls-1" d="M108.7,69.64v-9.9h-3.1v2.49l-3.48-4.93-.53-1.53c0-.87.39-1.26,1.18-1.17l.44.13a1,1,0,0,1,.56.83V57h3.49V55.77a5.58,5.58,0,0,0-.56-2.48l-.48-.61a4.72,4.72,0,0,0-3-1.14l-1.79.13-1.18.44a3.66,3.66,0,0,0-1.66,1.79c-.61,1.66-.26,3.53,1,5.63l-1.23,1.22L97,62.8a6.21,6.21,0,0,0,.91,5.71c.79,1.35,2.23,2,4.37,2h5.45C108.53,70.56,108.88,70.3,108.7,69.64Zm-3.31-2.22h-1.92l-1.88-.35-.7-.48a3.54,3.54,0,0,1-.52-2.79,2.45,2.45,0,0,1,.83-1.57l4.23,5Z"/>
    <path id="path2123" class="cls-2" d="M120.61,61h-5v5.5h5v4H122V10.28H110V70.65h.7V47.71h9.9v4h-5v5.15h5Z"/>
    <path id="path2127" class="cls-2" d="M78,53.46c-.31-1.35-1.09-1.92-2.23-1.7v6.67c1.31.22,2-.47,2.23-2.09Z"/>
    <path id="path2131" class="cls-1" d="M87,47.49l2.44-.35a5.09,5.09,0,0,1,4.1,2l.7,1.1a10.51,10.51,0,0,1,.35,4.27l-4.41,0V52.29a1,1,0,0,0-1.09-1c-.65,0-1,.48-1,1.31v13l.13.61a1,1,0,0,0,.83.7c.87.31,1.35-.09,1.35-1.09V62H89.16V58h5.58v5.41l15-53.13H69.75V70.69h1.44V47.62H75.9l2.44.26A5.36,5.36,0,0,1,82,50.76a12.7,12.7,0,0,1,.74,3.75c.17,2.44,0,4-.57,4.67-1,2.26-2.61,3.4-4.88,3.22l-1.57,0v8.16H86.81c-2.23-.48-3.32-2.18-3.32-4.93V52.37C83.19,49.76,84.36,48.1,87,47.49Z"/>
    <path id="path2135" class="cls-1" d="M129.2,14.91c2.36,0,3.49-1.18,3.49-3.58S131.56,8,129.2,8s-3.53,1.09-3.53,3.36S126.8,14.91,129.2,14.91ZM132,11.33c0,2.09-.92,3.05-2.84,3.05s-2.92-1-2.92-3.05a2.59,2.59,0,0,1,2.92-2.92C131.12,8.41,132,9.41,132,11.33Z"/>
    <path id="path2137" class="cls-1" d="M130.81,10.5c0-.78-.52-1.18-1.43-1.18h-1.53v4.15h.61V11.68h.7l1.13,1.79H131l-1.18-1.84A1,1,0,0,0,130.81,10.5Zm-1.48-.65c.61,0,.87.21.87.61s-.39.7-1.09.7h-.65V9.85Z"/>
  </g>
</svg>
