<svg id="Layer_1" data-name="Layer 1" xmlns="http://www.w3.org/2000/svg" viewBox="0 0 200 80.93">
  <defs>
    <style>
      .cls-1 {
        fill: #fff;
      }
    </style>
  </defs>
  <title>white logoSky Full Color</title>
  <g id="layer1">
    <path id="path5944" class="cls-1" d="M94.33,52.16c0,2.81-1.1,4.4-6.56,4.4a13.44,13.44,0,0,1-2-.13V19.3c0-2.81,1-5.76,6.46-5.76a9.29,9.29,0,0,1,2.06.22ZM82.65,46.54c0,5.22-3.39,9-10.29,9.78-5,.54-12.29-.09-15.74-.48A8.28,8.28,0,0,1,56.38,54c0-4.56,2.44-5.62,4.79-5.62s6.17.44,9,.44c3.06,0,4-1,4-2,0-1.31-1.24-1.86-3.63-2.31L63.94,43.2c-5.45-1.05-8.37-4.82-8.37-8.84,0-4.89,3.44-9,10.24-9.72a70,70,0,0,1,14.83.48,7,7,0,0,1,.19,1.75c0,4.56-2.39,5.55-4.73,5.55-1.72,0-4.5-.33-7.66-.33s-4.55.89-4.55,2,1.3,1.6,3.26,2l6.32,1.16c6.41,1.18,9.18,4.85,9.18,9.37m34.55,20a9.79,9.79,0,0,0,4,.86c3.16.06,4.88-1.14,6.17-4l17-38a9,9,0,0,0-3.54-.8c-2.15-.05-5.12.39-7,4.86l-5.5,13L117.58,24.9a15.2,15.2,0,0,0-3.63-.52c-3.83,0-6,1.4-8.18,3.8L95.29,39.68,103.71,53a7.5,7.5,0,0,0,6.94,3.67,12.13,12.13,0,0,0,4.88-.92L105.38,40.4l7.18-7.66,11.82,18.58"/>
  </g>
</svg>
