<svg id="Layer_1" data-name="Layer 1" xmlns="http://www.w3.org/2000/svg" viewBox="0 0 602 128"><defs><style>.cls-1{fill:#fff;}</style></defs><title>Tesco white</title><g id="bh97mw.tif"><path class="cls-1" d="M434.65,122.3c4.46-3.66,9.08-7.15,13.35-11,5.86-5.31,12.45-8.29,20.48-8.23,16.36.12,32.72,0,49.08,0h1.57c-5.77,4.67-11.64,9.73-17.85,14.32-2.85,2.1-6.36,3.3-9.58,4.91Z"/><path class="cls-1" d="M170.81,122.3c4.45-3.67,9-7.18,13.32-11.05,5.86-5.31,12.46-8.27,20.48-8.21,16.36.12,32.71,0,49.07,0h1.55c-5.79,4.69-11.72,9.78-18,14.43-2.78,2.07-6.24,3.23-9.39,4.8Z"/><path class="cls-1" d="M346.71,122.3c4.57-3.76,9.26-7.38,13.68-11.3,5.67-5,12-8,19.73-7.95,16.58.09,33.16,0,49.74,0h1.38c-5.92,4.76-11.92,9.88-18.25,14.55-2.73,2-6.13,3.14-9.22,4.67Z"/><path class="cls-1" d="M258.76,122.3c4.51-3.71,9.16-7.27,13.5-11.17C278,106,284.5,103,292.37,103c16.5.1,33,0,49.51,0h1.36c-5.88,4.74-11.88,9.85-18.2,14.53-2.73,2-6.12,3.15-9.21,4.69Z"/><path class="cls-1" d="M82.87,122.3c4.46-3.66,9.07-7.16,13.34-11,5.86-5.31,12.45-8.29,20.48-8.23,16.36.12,32.72,0,49.08,0h1.57c-5.83,4.69-11.78,9.76-18,14.4-2.79,2.06-6.22,3.25-9.37,4.83Z"/><path class="cls-1" d="M468.36,84.35c-11.46-.15-22.64-2.35-32.11-9.8C425.7,66.26,421.59,55.09,423,42c1.48-14.09,9.34-24.06,21.86-29.87,18-8.34,36.4-8.86,54.25.49,11.23,5.89,17.26,15.77,18.3,28.45,1.75,21.51-12.1,35.15-29.1,40.42A69.57,69.57,0,0,1,468.36,84.35Zm27.28-37.77c0-5.91-.76-10.33-2.62-14.48-4-9-10.86-14.44-20.82-15.22-9-.71-16.66,2.45-22,9.94-6.24,8.84-7.14,18.69-3.92,28.81,5.35,16.83,25.18,23.3,38.79,12.72C492.61,62.54,495.35,54.4,495.64,46.58Z"/><path class="cls-1" d="M327.91,27.33c-6.87-5.41-14.27-8.06-22.14-9.51-7.13-1.31-14.32-2-21.47-.2a17,17,0,0,0-5.78,2.64c-4.06,3-3.95,8.6.53,10.8a52.94,52.94,0,0,0,12.18,3.72c7,1.51,14,2.5,21,4a29.76,29.76,0,0,1,12.34,5.73,18.05,18.05,0,0,1,7.08,13.41c.85,12.16-4.4,19.88-16,23.63C307,84.36,298,84.73,289,84.36c-9.36-.38-18.66-1.21-27.76-3.66-2.13-.57-2.82-1.48-2.72-3.66.19-4.11.05-8.24.05-12.69.9.44,1.46.67,2,1,12.45,7.22,25.94,9.4,40.07,8a24.94,24.94,0,0,0,8.54-2.57c5.87-2.95,6.23-9.93.5-13.13a42.39,42.39,0,0,0-11.64-4c-7.8-1.69-15.71-2.85-23.54-4.42a30.45,30.45,0,0,1-6.4-2.39c-14.39-6.53-12.55-25.45-4.24-32.54A32.18,32.18,0,0,1,280.48,7a108.72,108.72,0,0,1,46,3.43A2.22,2.22,0,0,1,327.85,12C328,16.89,327.91,21.81,327.91,27.33Z"/><path class="cls-1" d="M205.54,19.29V39c8.87.33,17.59.14,26.36-1.86V51.27c-6.54-.51-13-1.06-19.45-1.49-2.2-.15-4.41,0-6.81,0v20.6c8.86.77,33.1,1.34,44.34-5.8V81.35H182c3.4-4.67,3-9.87,3-15q0-22.84,0-45.68c0-4.26-.23-8.46-3.39-12.2h64V25.37C233.06,18.9,219.43,19.18,205.54,19.29Z"/><path class="cls-1" d="M416.33,26.41c-4.58-4-9.1-6.84-14.41-8.1-11.23-2.66-21.83-1.38-30.91,6.2-8.19,6.85-10.79,16-8.77,26.27s8.45,17,18.28,20c13.22,4,25.42,2,35.87-7.59.21-.19.44-.35.91-.73.07.8.16,1.38.16,2,0,4.79,0,9.58,0,14.37,0,1.43-.49,2-1.84,2.27-11.34,2.61-22.81,3.94-34.43,3-12.33-1-23.95-4.32-33.23-13.07-14.76-13.93-13.77-38,2-51.46,7.53-6.45,16.41-10,26-11.8,12.85-2.41,25.72-2,38.56.09.65.11,1.69.85,1.7,1.32C416.37,14.64,416.33,20.2,416.33,26.41Z"/><path class="cls-1" d="M85,25.54V8.4h88.21V25.63c-6.95-4-14.52-5.3-22.2-6.12-3.12-.33-6.28-.36-9.4-.68-1.93-.2-2.06.81-2.06,2.29,0,9.58,0,19.16,0,28.74,0,7.93,0,15.87.36,23.79.12,2.58,1.4,5.11,2.16,7.7H115.57c4-5.14,3.21-11,3.24-16.77.07-14.08,0-28.17,0-42.25,0-.91,0-1.83,0-2.67C112.29,18,94.68,21.1,85,25.54Z"/></g></svg>