<svg id="Layer_1" data-name="Layer 1" xmlns="http://www.w3.org/2000/svg" viewBox="0 0 200 80.93">
  <defs>
    <style>
      .cls-1 {
        fill: #fff;
      }
    </style>
  </defs>
  <title>white logoTommy Hilfiger</title>
  <g id="layer1">
    <g id="g2009">
      <path id="path13" class="cls-1" d="M95.11,43V37.88H103V43Z"/>
      <path id="path15" class="cls-1" d="M87.21,43V37.89h7.9V43Z"/>
      <path id="path17" class="cls-1" d="M24.65,35.19a5.28,5.28,0,1,0,0,10.55,5.28,5.28,0,1,0,0-10.55Zm141.76,0a5.33,5.33,0,0,0-5.52,5.34,5.19,5.19,0,0,0,5.48,5.21,9,9,0,0,0,3.91-.85h0V40.54h-3.45v1.32h2V44a7.17,7.17,0,0,1-2.24.41,3.92,3.92,0,1,1-.19-7.84,7.67,7.67,0,0,1,3.69,1v-1.5A8.3,8.3,0,0,0,166.41,35.19ZM5.14,35.33v1.32H8.7v9h1.47v-9h3.56V35.33Zm32,0V45.6h1.48v-8h0l3.17,4H42l3.16-4h0v8H46.7V35.33H45.33L41.9,39.54l-3.4-4.21Zm17.94,0V45.6h1.47v-8h0l3.17,4H60l3.16-4h0v8h1.48V35.33H63.26l-3.42,4.21-3.41-4.21Zm16,0,3.81,4.84V45.6h1.48V40.18l3.81-4.85H78.35l-2.78,3.54-2.76-3.54Zm16.18,0v2.55H103V35.33Zm24.17,0V45.6h1.47V41.13h5.76V45.6h1.48V35.33h-1.48V39.8h-5.76V35.33Zm14.82,0V45.6h1.48V35.33Zm7.53,0V45.6h6.12V44.27h-4.64V35.33Zm10.36,0V45.6h1.48V40.82h4V39.5h-4V36.65h4V35.33Zm10.66,0V45.6h1.47V35.33Zm21.15,0V45.6h6V44.27h-4.49V41.08h4.2V39.76h-4.2V36.65h4.35V35.33Zm11,0V45.6h1.49V41.14H189c.76,0,1.38.24,2.73,2.35l1.35,2.11h1.77c-.71-1-1-1.32-1.41-2a8.42,8.42,0,0,0-2.28-2.85,2.58,2.58,0,0,0,1.72-2.52c0-1.77-1.3-2.87-3.38-2.87ZM24.65,36.54a3.92,3.92,0,1,1,0,7.84,3.92,3.92,0,1,1,0-7.84Zm163.75.05h.95c1.43,0,2,.59,2,1.55s-.43,1.68-2,1.68h-.95ZM87.21,43v2.57H103V43Z"/>
    </g>
  </g>
</svg>
