<svg id="Layer_1" data-name="Layer 1" xmlns="http://www.w3.org/2000/svg" viewBox="0 0 200 80.93">
  <defs>
    <style>
      .cls-1 {
        fill: #fff;
      }
    </style>
  </defs>
  <title>white logoUnited</title>
  <g>
    <path class="cls-1" d="M154.43,25.23h30.43V52.49c0,1.07,0,2.14,0,3.21h-6.41a22.91,22.91,0,0,0,.87-3.07,20.7,20.7,0,0,0,.23-6.43,19.69,19.69,0,0,0-3.74-9.28,19.8,19.8,0,0,0-21.37-7.31C154.42,28.15,154.43,26.69,154.43,25.23Z"/>
    <path class="cls-1" d="M156.83,29.37a10.25,10.25,0,0,1,4.2,0,6.37,6.37,0,0,1,4.48,3.39,6.75,6.75,0,0,1,.63,2.87,12.81,12.81,0,0,1-2,6.48A21,21,0,0,1,160,47a22.23,22.23,0,0,1-4.94,3.31,4.59,4.59,0,0,1-.64.28c0-.56,0-1.1,0-1.65.17.29.29.61.47.9a6.65,6.65,0,0,0,.75-.39c-.38-.81-.8-1.6-1.19-2.41a.73.73,0,0,1,0-.33c0-.31,0-.62,0-.93a10.6,10.6,0,0,0,2-1.33c.07-.08.14,0,.17.08.67.92,1.38,1.81,2.09,2.7a.52.52,0,0,0,.1.11,4.62,4.62,0,0,0,.94-.82c-.75-.9-1.53-1.79-2.35-2.63,0-.05-.13-.09-.1-.16a9,9,0,0,0,1.46-1.37,2.52,2.52,0,0,1,.39-.41c1,.75,1.91,1.52,2.85,2.3.3-.38.6-.76.89-1.15a32.54,32.54,0,0,0-3-2,18.85,18.85,0,0,0,1.18-1.86A30.93,30.93,0,0,1,164,40.58a1.68,1.68,0,0,0,.33.16,7.86,7.86,0,0,0,.6-1.32A25.28,25.28,0,0,0,161.62,38a6.78,6.78,0,0,0,.49-1.46,22.76,22.76,0,0,1,3.33.9,8.46,8.46,0,0,0,.22-1.59,25,25,0,0,0-3.29-.59,8.44,8.44,0,0,0,0-1,28.36,28.36,0,0,1,3.17.42,4.78,4.78,0,0,0-.34-1.4,21.32,21.32,0,0,0-3-.15,6.18,6.18,0,0,0-.26-.76,19.57,19.57,0,0,1,2.76-.06,3.44,3.44,0,0,0-.86-1.07,16.13,16.13,0,0,0-2.41.24,5.37,5.37,0,0,0-.49-.58,16.5,16.5,0,0,1,2-.32c0-.11-.16-.15-.25-.2a7.83,7.83,0,0,0-1.05-.51c-.17-.08-.35,0-.52.05-.35.08-.69.21-1,.29a8,8,0,0,0-.73-.34,6,6,0,0,1,.92-.34,8.69,8.69,0,0,0-2.16-.12A4.11,4.11,0,0,1,156.83,29.37Z"/>
    <path class="cls-1" d="M161.6,29.19a13.8,13.8,0,0,1,3.48.71,7,7,0,0,1,2.42,1.48,7.76,7.76,0,0,1,2.61,4.72,11.29,11.29,0,0,1-.94,5.87,21,21,0,0,1-3.34,5.31,24.6,24.6,0,0,1-8.72,6.82,23.56,23.56,0,0,1-2.68,1c0-1.42,0-2.85,0-4.27.28-.11.55-.25.83-.36.5,1.07,1,2.12,1.62,3.14a5.36,5.36,0,0,0,.86-.44c-.52-1-1-2-1.6-2.92,0-.07-.15-.21,0-.25a19.12,19.12,0,0,0,3.16-2.11l2.24,2.85a10,10,0,0,0,1.14-.92c-.65-.83-1.34-1.62-2-2.41-.09-.13-.25-.22-.3-.37.33-.32.7-.61,1-1a16.69,16.69,0,0,0,1.23-1.42,32,32,0,0,1,2.73,2.47,7.71,7.71,0,0,0,1.05-1.36q-1.08-1-2.22-1.86a3.94,3.94,0,0,1-.59-.49,11.19,11.19,0,0,0,1.41-2.29c.78.4,1.5.89,2.24,1.36a10.44,10.44,0,0,0,.89.58,9.85,9.85,0,0,0,.73-1.58c-1-.61-2-1.19-3.06-1.71-.06,0-.17-.08-.12-.16a15.74,15.74,0,0,0,.56-1.89,20.1,20.1,0,0,1,2.67,1.12,5.37,5.37,0,0,0,.65.29,10.25,10.25,0,0,0,.21-1.91,23.18,23.18,0,0,0-3.3-1.18c0-.4,0-.81,0-1.21a23.27,23.27,0,0,1,3,.85c.07,0,.19.1.23,0a8.21,8.21,0,0,0-.61-1.81,23.57,23.57,0,0,0-2.9-.56c-.09-.33-.28-.63-.35-1,.67.09,1.35.14,2,.27a4.5,4.5,0,0,0,.51.08,6.26,6.26,0,0,0-1.3-1.37.48.48,0,0,0-.33-.15c-.58,0-1.16,0-1.74,0-.18-.16-.34-.36-.52-.52s-.16-.1-.15-.19c.41,0,.82,0,1.23,0a1.8,1.8,0,0,0-.6-.31,8.25,8.25,0,0,0-2.19-.59C162.29,29.42,161.93,29.34,161.6,29.19Z"/>
    <path class="cls-1" d="M155.12,29.82a7.62,7.62,0,0,1,4.07.3,4.53,4.53,0,0,1,2.36,2,5.9,5.9,0,0,1,.41,4,12.76,12.76,0,0,1-2.59,5.09,18.6,18.6,0,0,1-4.65,4.06,1.4,1.4,0,0,1-.3.15c0-1.25,0-2.5,0-3.76.56.66,1.06,1.37,1.61,2a2.93,2.93,0,0,0,.72-.55c-.76-.8-1.51-1.6-2.26-2.41a.19.19,0,0,1,0-.32,10.2,10.2,0,0,0,1.09-1.09c1,.64,2,1.35,2.93,2.08.19-.22.38-.43.56-.66,0-.06.14-.14,0-.2a33.58,33.58,0,0,0-3.09-1.75,8.18,8.18,0,0,0,.82-1.28c1,.31,2,.67,3,1.07a2.17,2.17,0,0,0,.53.21c.17-.32.34-.65.49-1a23,23,0,0,0-3.66-1,5,5,0,0,0,.32-.94,22.35,22.35,0,0,1,3.82.52,6,6,0,0,0,.23-1.18,33.53,33.53,0,0,0-3.88-.12c0-.26,0-.51.07-.77a33.34,33.34,0,0,1,3.87-.09,3.74,3.74,0,0,0-.17-1,22.68,22.68,0,0,0-3.76.43,5.66,5.66,0,0,0-.15-.59,24.37,24.37,0,0,1,3.63-.63,4.28,4.28,0,0,0-.51-.77,26.12,26.12,0,0,0-3.34.89,2.17,2.17,0,0,0-.32-.49,18.25,18.25,0,0,1,3.05-.95,3.18,3.18,0,0,0-.89-.56,15.87,15.87,0,0,0-2.56,1.06c-.12-.1-.25-.19-.38-.28s.09-.1.14-.14a12.35,12.35,0,0,1,1.94-.93,5.45,5.45,0,0,0-1.39-.22,8.57,8.57,0,0,0-1.43.9,3.68,3.68,0,0,0-.54-.16,6,6,0,0,1,.88-.7,11.61,11.61,0,0,0-1.43.17v-.2l-.3,0A5.59,5.59,0,0,1,155.12,29.82Z"/>
    <path class="cls-1" d="M166.78,30.47a4.91,4.91,0,0,1,.83.24,7.21,7.21,0,0,1,2.78,1.59,9.8,9.8,0,0,1,1.8,2.4,10.24,10.24,0,0,1,1,6.57,18.25,18.25,0,0,1-3,6.82,29.56,29.56,0,0,1-7.8,7.61h-3.16c-.35-.6-.72-1.2-1.08-1.81A29.28,29.28,0,0,0,162,51.42c.66.83,1.28,1.69,2,2.5.41-.34.83-.67,1.23-1a31.84,31.84,0,0,0-2-2.47,23.4,23.4,0,0,0,2.66-2.7c.77.73,1.48,1.51,2.21,2.28a9.11,9.11,0,0,0,1.19-1.44c-.72-.79-1.52-1.49-2.29-2.23.14-.22.32-.41.47-.62a19.22,19.22,0,0,0,1.28-2.07,2.78,2.78,0,0,1,.54.38c.64.48,1.24,1,1.86,1.5a11.77,11.77,0,0,0,.79-1.78,21.82,21.82,0,0,0-2.4-1.77,11.31,11.31,0,0,0,.72-2.34,19,19,0,0,1,2.44,1.5,10.83,10.83,0,0,0,.2-2.27,23.11,23.11,0,0,0-2.36-1.25,14.66,14.66,0,0,0-.07-1.48c.75.31,1.49.65,2.21,1a6.66,6.66,0,0,0-.65-2c-.07-.13-.11-.32-.28-.36-.61-.21-1.22-.42-1.84-.6a8,8,0,0,0-.57-1.13,10,10,0,0,1,1.72.51,7.56,7.56,0,0,0-2.25-2c-.28-.17-.64-.05-.91-.21A5.42,5.42,0,0,0,166.78,30.47Z"/>
    <path class="cls-1" d="M154.43,31a3.48,3.48,0,0,1,2.7,1.77,4.68,4.68,0,0,1,0,3.51,9.07,9.07,0,0,1-2,3.2,6.27,6.27,0,0,1-.7.67c0-.52,0-1,0-1.56a3.6,3.6,0,0,0,.54.31,2.46,2.46,0,0,0,.38-.41,8.17,8.17,0,0,0-.93-.48c0-.38,0-.76,0-1.14a8.43,8.43,0,0,1,1.71.44,5.39,5.39,0,0,0,.29-.59,13.45,13.45,0,0,0-2-.29c0-.22,0-.44,0-.65a20.32,20.32,0,0,1,2.34.07,5.06,5.06,0,0,0,.17-.67c-.84,0-1.68.1-2.51.17v-.5a20.29,20.29,0,0,1,2.56-.39c0-.19,0-.38,0-.57a13.85,13.85,0,0,0-2.53.66c0-.16,0-.32,0-.48a15.48,15.48,0,0,1,2.39-.77,2.19,2.19,0,0,0-.15-.43,13.29,13.29,0,0,0-2.25.92c0-.18,0-.36,0-.54.62-.3,1.23-.6,1.86-.87a2.41,2.41,0,0,0-.37-.34c-.5.29-1,.58-1.49.88,0-.17,0-.35,0-.52.27-.17.53-.35.81-.5.06-.05.17-.07.19-.15a1.6,1.6,0,0,0-.59-.24c-.15.06-.27.19-.43.25C154.42,31.46,154.42,31.21,154.43,31Z"/>
    <path class="cls-1" d="M11.52,33.4h4.64c0,3,0,6.05,0,9.07a3.4,3.4,0,0,0,1,2.56,4.56,4.56,0,0,0,3,.93,6,6,0,0,0,2.55-.42A2.71,2.71,0,0,0,24,44.22a4.63,4.63,0,0,0,.36-2c0-2.94,0-5.87,0-8.8H29v8.54a10.31,10.31,0,0,1-.22,2.54,6,6,0,0,1-2.27,3.6,9.44,9.44,0,0,1-5,1.61,16.35,16.35,0,0,1-4.73-.34A7.11,7.11,0,0,1,13,47.09a7.2,7.2,0,0,1-1.46-4.39Z"/>
    <path class="cls-1" d="M37.55,37.55c0-1.39,0-2.77,0-4.16,1.3,0,2.6,0,3.9,0,.1,0,.15.08.22.13.94,1,1.9,1.95,2.84,2.94s2,2.13,3.1,3.18,2.06,2.11,3.07,3.2c0-1.22,0-2.44,0-3.66,0-1.93,0-3.86,0-5.79h4.35v16H51.57q-4.83-4.92-9.67-9.85c0,3.29,0,6.57,0,9.86-1.44,0-2.88,0-4.32,0,0-1.46,0-2.91,0-4.37Z"/>
    <path class="cls-1" d="M65,38.14c0-1.58,0-3.16,0-4.74h4.73q0,8,0,16H65C64.94,45.67,65,41.91,65,38.14Z"/>
    <path class="cls-1" d="M77.56,33.4H93.88c0,1.24,0,2.49,0,3.73H88.05c0,4.11,0,8.21,0,12.31H83.39c0-4.11,0-8.21,0-12.31h-5.8l0,0C77.55,35.87,77.56,34.63,77.56,33.4Z"/>
    <path class="cls-1" d="M101.63,33.4h15c0,1.2,0,2.41,0,3.61H106.27c0,.89,0,1.78,0,2.68,2.92,0,5.84,0,8.77,0v3.37h-8.76c0,.92,0,1.84,0,2.77h10.42c0,1.2,0,2.4,0,3.6H101.63C101.64,44.09,101.63,38.74,101.63,33.4Z"/>
    <path class="cls-1" d="M125.22,33.4h5.92a34.37,34.37,0,0,1,4.65.16A10.41,10.41,0,0,1,140,35a6.51,6.51,0,0,1,2.38,2.61,8.32,8.32,0,0,1,.81,3.9,8.27,8.27,0,0,1-.8,3.73,6.57,6.57,0,0,1-1.86,2.26A9.68,9.68,0,0,1,136,49.24a31.31,31.31,0,0,1-4.84.2h-6C125.23,44.09,125.22,38.75,125.22,33.4Zm4.65,3.7c0,2.88,0,5.76,0,8.63.55,0,1.1,0,1.66,0,.9,0,1.79,0,2.69,0a4.88,4.88,0,0,0,3.11-1.23,4.11,4.11,0,0,0,1-2.85,5.43,5.43,0,0,0-.37-2.26,3.21,3.21,0,0,0-1.32-1.5,6.45,6.45,0,0,0-3.11-.76Z"/>
    <path class="cls-1" d="M172.06,33.84c.35.16.82.18,1,.54A10.61,10.61,0,0,1,175.42,39a11.79,11.79,0,0,1-.1,5.54,20.93,20.93,0,0,1-4.44,8.19A30.3,30.3,0,0,1,168,55.64c-.23,0-.46,0-.69,0-.55-.7-1.07-1.42-1.65-2.1a23.37,23.37,0,0,0,2.88-2.92c.58.65,1.15,1.32,1.7,2a6.56,6.56,0,0,0,.62-.67,7.05,7.05,0,0,0,.62-.82c0-.17-.17-.26-.26-.39-.48-.55-1-1.1-1.48-1.63a23.67,23.67,0,0,0,1.37-2c.19-.31.37-.62.53-.95a3.5,3.5,0,0,1,.66.56c.4.39.8.79,1.19,1.2a11.72,11.72,0,0,0,.84-1.88,15.76,15.76,0,0,0-1.73-1.64c-.09,0-.06-.13,0-.21a11.3,11.3,0,0,0,.73-2.47,1.41,1.41,0,0,1,.45.28c.46.33.88.72,1.3,1.09a11.64,11.64,0,0,0,.13-2.57c-.51-.42-1-.82-1.58-1.19-.05-.56,0-1.12-.13-1.67.47.26.91.56,1.38.82a10.18,10.18,0,0,0-1.06-2.55,1.41,1.41,0,0,0-.23-.35c-.24-.15-.52-.24-.76-.37-.08,0-.11-.12-.14-.18C172.5,34.6,172.26,34.23,172.06,33.84Z"/>
    <path class="cls-1" d="M174.33,35.65c.26,0,.4.29.57.45a10.15,10.15,0,0,1,2.44,5,13.81,13.81,0,0,1-.28,6,21,21,0,0,1-4.71,8.58h-3.88c.18-.21.41-.39.61-.59.45-.44.87-.92,1.29-1.4.14-.14.24-.34.41-.43.49.59.94,1.21,1.4,1.83a17.56,17.56,0,0,0,1.27-1.58c-.44-.63-.9-1.24-1.4-1.83a26.91,26.91,0,0,0,2-3.22,21.05,21.05,0,0,1,1.31,1.68,9.08,9.08,0,0,0,.86-2A16.7,16.7,0,0,0,175,46.52a14.48,14.48,0,0,0,.75-2.82A12.2,12.2,0,0,1,177,45a13.14,13.14,0,0,0,.09-2.94,8.75,8.75,0,0,0-1.06-1c0-.67-.14-1.32-.23-2,.26.19.5.39.76.57a11.36,11.36,0,0,0-2-3.63C174.45,35.91,174.32,35.81,174.33,35.65Z"/>
    <path class="cls-1" d="M177.48,40.43c.24.12.32.39.42.62a10.57,10.57,0,0,1,.84,2.86,12.78,12.78,0,0,1-.13,3.21,18.7,18.7,0,0,1-1.51,5,24.48,24.48,0,0,1-2,3.5h-.34c-.28-.49-.61-1-.87-1.44a27.83,27.83,0,0,0,2-3.26H176c.23.34.43.7.64,1.05a3.54,3.54,0,0,0,.3-.62,11.49,11.49,0,0,0,.53-1.49c-.21-.35-.41-.71-.61-1.06a20,20,0,0,0,.77-3c0-.12.1,0,.13,0s.29.37.45.55a12.07,12.07,0,0,0,.21-2.94,5.58,5.58,0,0,0-.55-.73c-.08-.09-.06-.22-.08-.33A15.28,15.28,0,0,0,177.48,40.43Z"/>
    <path class="cls-1" d="M179.15,46.51c0-.1,0-.43.16-.34a13.52,13.52,0,0,1-.54,4.93A21.68,21.68,0,0,1,177,55.7h-1.5a4.48,4.48,0,0,1,.35-.6c.49-.76.9-1.57,1.32-2.36a7.73,7.73,0,0,1,.37.69,16.22,16.22,0,0,0,.71-1.91c.16-.38-.31-.7-.15-1.07a18.12,18.12,0,0,0,.78-3c.07,0,.12.09.18.13C179.07,47.23,179.11,46.87,179.15,46.51Z"/>
    <path class="cls-1" d="M179.29,50.05l.11,0a19.69,19.69,0,0,1-1.22,5.62h-.86c.17-.38.36-.75.53-1.13,0-.06.1-.17.12,0s0,.2.1.16C178.56,53.12,179,51.59,179.29,50.05Z"/>
    <path class="cls-1" d="M186.27,53.37a1.35,1.35,0,0,1,1.81.06,1.49,1.49,0,0,1,.4.92v0a1.35,1.35,0,0,1-2.36.86A1.34,1.34,0,0,1,186.27,53.37Zm.54.06a1,1,0,0,0-.53,1.45,1,1,0,0,0,1.51.25l-.33,0-.39-.62h-.14v.63h-.33c0-.5,0-1,0-1.49a5,5,0,0,1,1,0,.43.43,0,0,1,.25.55c0,.17-.23.22-.36.3.17.16.22.45.44.54a1,1,0,0,0,.24-.9A1,1,0,0,0,186.81,53.43Zm.12.49v.24h.45c.12,0,.11-.12.12-.19A3.52,3.52,0,0,0,186.93,53.92Z"/>
    <path class="cls-1" d="M154.43,55.4a22.79,22.79,0,0,0,2.74-1.06c.25.46.52.9.75,1.36h-3.5C154.42,55.6,154.42,55.5,154.43,55.4Z"/>
    <path class="cls-1" d="M163.25,55.44c.41-.26.77-.6,1.18-.88.23.39.52.74.72,1.14h-2.26C163,55.61,163.12,55.52,163.25,55.44Z"/>
  </g>
</svg>
