<svg id="Layer_1" data-name="Layer 1" xmlns="http://www.w3.org/2000/svg" viewBox="0 0 200 80.93">
  <defs>
    <style>
      .cls-1 {
        fill: #fff;
      }
    </style>
  </defs>
  <title>white logoVerizon</title>
  <g id="Page-1">
    <g id="Verizon">
      <g id="Verizon-">
        <rect id="Rectangle-path" class="cls-1" x="83.65" y="26.3" width="7.01" height="6.35"/>
        <rect id="Rectangle-path-2" data-name="Rectangle-path" class="cls-1" x="83.65" y="34.31" width="7.01" height="22.44"/>
        <polygon id="Shape" class="cls-1" points="35.67 34.31 30.94 49.12 25.98 34.31 18.89 34.31 27.24 56.75 34.8 56.75 42.68 34.31 35.67 34.31"/>
        <polygon id="Shape-2" data-name="Shape" class="cls-1" points="112.09 39.75 112.09 39.45 112.09 34.31 92.71 34.31 92.71 39.75 103.9 39.75 92.71 51.38 92.71 56.75 112.96 56.75 112.96 51.38 101.46 51.38 112.09 39.75"/>
        <path id="Shape-3" data-name="Shape" class="cls-1" d="M73.88,37.78V34.31H67V56.75h6.85v-10c.24-5.82,5.28-6.27,5.28-6.27h2.36v-6H79C76.8,34.31,74.75,36.65,73.88,37.78Z"/>
        <path id="Shape-4" data-name="Shape" class="cls-1" d="M53.4,33.55a12.09,12.09,0,0,0,0,24.18c5,0,9.85-3.1,11.58-7.48H58.44a5.35,5.35,0,0,1-5.2,2.42c-2.44-.15-4.49-2.27-5.12-5.29H65.06a13.83,13.83,0,0,0,.16-1.81A11.91,11.91,0,0,0,53.4,33.55Zm-5.12,9.37c.78-2.57,2.68-4.38,4.88-4.38s4.1,1.81,4.89,4.38Z"/>
        <path id="Shape-5" data-name="Shape" class="cls-1" d="M125.41,33.55c-7,0-12.69,5.44-12.69,12.09s5.68,12.09,12.69,12.09,12.68-5.44,12.68-12.09S132.42,33.55,125.41,33.55Zm.08,19c-2.92,0-5.28-3.09-5.28-7s2.36-7,5.28-7,5.28,3.1,5.28,7S128.4,52.59,125.49,52.59Z"/>
        <path id="Shape-6" data-name="Shape" class="cls-1" d="M161.81,42c0-7.1-5.75-9-10-8.08a9.65,9.65,0,0,0-5.2,3.32V34.31h-6.77V56.75h6.77V43.15c1.5-4.08,4.57-4.39,6.46-3.25a4.9,4.9,0,0,1,2,3.25v13.6h6.78V42Z"/>
        <polyline id="Shape-7" data-name="Shape" class="cls-1" points="161.81 34.31 167.32 45.64 170.32 45.64 181.11 23.2 177.49 23.2 168.66 41.18 165.51 34.31 161.81 34.31"/>
      </g>
    </g>
  </g>
</svg>
