<svg id="Layer_1" data-name="Layer 1" xmlns="http://www.w3.org/2000/svg" xmlns:xlink="http://www.w3.org/1999/xlink" viewBox="0 0 200 80.93">
  <defs>
    <style>
      .cls-1 {
        fill: none;
      }

      .cls-2 {
        clip-path: url(#clip-path);
      }

      .cls-3 {
        fill: #fff;
      }
    </style>
    <clipPath id="clip-path">
      <rect class="cls-1" x="65.26" y="5.99" width="69.47" height="68.94"/>
    </clipPath>
  </defs>
  <title>white logowells fargo </title>
  <g class="cls-2">
    <g>
      <path class="cls-3" d="M122.52,44.07c-2,0-3.41,1.36-3.41,4s1.47,4,3.41,4,3.37-1.4,3.37-4h0C125.91,45.43,124.48,44.07,122.52,44.07Z"/>
      <path class="cls-3" d="M65.61,6.48V74.9h69V6.48ZM108.8,28.15h6v1.11h-.72c-1,0-1.13.09-1.13.91v6.75h2.42c1.18,0,1.88-.15,2.19-.74a4.09,4.09,0,0,0,.42-2.09h1.16v4h-9.87V37h.15c.87,0,1.25-.08,1.25-.93V30.21c0-.84-.41-.93-1.25-.93h-.64Zm-10.71,0h6v1.11h-.72c-1,0-1.14.09-1.14.91v6.75h2.43c1.18,0,1.87-.15,2.19-.74a4,4,0,0,0,.42-2.09h1.15v4H98.15V37h.58c.86,0,1.24-.08,1.24-.93V30.21c0-.84-.51-.93-1.35-.93h-.53ZM69.82,29.26h-.25V28.15h5.06v1.11h-.48c-.57,0-.83.15-.8.47a.56.56,0,0,0,0,.31s1.15,2.73,2.07,5.42h.14l2-5c-.09-.82-.36-1.25-1.22-1.25h-.68V28.15H81v1.11h-.82c-.5,0-.69.11-.69.4a1.16,1.16,0,0,0,.08.42s1.2,2.9,2.08,5.42h.11l1.93-5a2,2,0,0,0,.12-.76c0-.31-.28-.45-.84-.45H82.3v-1.1H97.09V32H96c-.06-2.32-.61-2.69-2.65-2.69H90.52v3h.71c1.27,0,1.44-.42,1.54-1.92h1.15v5H92.75c-.08-1.71-.25-1.95-1.5-1.95h-.73v3.46H93.7c1.81,0,2.25-.85,2.41-2.83h1.14v4H86.34V37h.59c.87,0,1.35-.08,1.35-.91v-5.9c0-.82-.48-.91-1.35-.91h-.18c-.82,0-1.1.32-1.43,1.23L82.47,38.1H80.68L78.4,32.58,76.24,38.1H74.38l-3-7.49C71.07,29.75,70.57,29.26,69.82,29.26Zm7.43,18c1.27,0,1.46-.23,1.46-1.77h.94v5h-.94c0-1.66-.19-2-1.43-2h-.81V51c0,.83.13.91,1,.91h1.16V53H72.5V51.9h.57c.86,0,1.16-.08,1.16-.91v-5.9c0-.82-.3-.91-1.16-.91H72.5V43.07H82.73v3.85H81.58a4.38,4.38,0,0,0-.4-2c-.34-.59-1-.68-2.21-.68h-2.5v3Zm27.33,3.48c0,1.81-.85,2.53-2,2.53-1.37,0-2.25-.38-2.32-1.75l0-1.16c-.06-1.67-.59-2-2.32-2h-1V51c0,.83.13.91,1,.91h.91V53H93.35v0H87.46V51.9h1.06c.58,0,.85-.06.85-.4a1.34,1.34,0,0,0-.15-.48l-.42-1.16H85l-.53,1.24a1.31,1.31,0,0,0-.12.47c0,.31.27.33.8.33h1.06V53H81V51.9h.46c.78,0,1-.27,1.31-1l3.33-7.86h2.44l3.18,7.86c.29.76.61,1,1.18,1h.69c.57,0,1.06-.2,1.06-.92V45.09c0-.82-.13-.91-1-.91h-.82V43.07h6.85c2.55,0,3.71.76,3.71,2.36,0,1.44-1.12,2.32-3,2.57,1.77.43,2,1.06,2.12,2.4,0,.21,0,.41,0,.62,0,.59.28.86.57.84.61,0,.66-.49.61-1.67h.93A4.34,4.34,0,0,1,104.58,50.7Zm11.31-1.82h-.37c-.72,0-.83-.07-.83.78V53h-.81l-.53-.83A5.61,5.61,0,0,1,110,53.22a4.66,4.66,0,0,1-3.45-1.41A5.29,5.29,0,0,1,105,47.93a5,5,0,0,1,1.5-3.77A5,5,0,0,1,110,42.85a4.64,4.64,0,0,1,3.18,1.06l.53-1.06h.79v3.34h-1l0,.09a2.91,2.91,0,0,0-3.12-2.19c-1.65,0-2.91,1.33-2.89,3.86s1,4,2.89,4c1.35,0,2.55-.67,2.55-1.82v-.53c0-.67-.16-.67-1.11-.67h-.5V47.74h4.62Zm6.64,4.32h0c-3.3,0-5.86-2.07-5.86-5.2s2.57-5.16,5.83-5.16,5.81,2,5.81,5.18S125.81,53.2,122.53,53.2Zm2.35-14.91a6.28,6.28,0,0,1-3.48-1.23l-.34,1.06h-1v-4h1.16a3.22,3.22,0,0,0,3.42,2.82c1.6.07,2.69-.35,2.82-1.44.14-1.26-1.24-1.18-2.4-1.39l-1.71-.31c-2.55-.45-3.37-1.19-3.43-2.85-.07-1.81,1.59-3,3.79-3a5.61,5.61,0,0,1,3.54,1l.51-.83h.88v3.48h-1.12c-.25-1.93-2.12-2.52-3.77-2.47-1.18,0-2,.71-2,1.52s.73.84,1.67,1l2.09.36c2.12.36,3.78.8,3.78,3.16v0C129.33,37.47,127.53,38.29,124.88,38.29Z"/>
      <path class="cls-3" d="M101.08,45.75v0c0-1.15-.67-1.5-2.09-1.5H96.86v3H99C100.43,47.22,101.08,46.78,101.08,45.75Z"/>
      <polygon class="cls-3" points="85.44 48.68 88.45 48.68 86.93 44.86 85.44 48.68"/>
    </g>
  </g>
</svg>
