<svg xmlns="http://www.w3.org/2000/svg" version="1.1" viewBox="0 0 110.5 110.5" width="110.5px" height="110.5px">
<g stroke="#666">
<path d="m24.571 108.43h55.2c12.2 0 22-9.8 22-22v-15.6c0-1.2-0.8-2-2-2s-2 0.8-2 2v15.6c0 10-8 18-18 18h-55.2c-10 0-18-8-18-18v-55.2c0-10 8-18 18-18h15.6c1.2 0 2-0.8 2-2s-0.8-2-2-2h-15.6c-12.2 0-22 9.8-22 22v55.2c0 12.2 9.8 22 22 22z" fill="#666" stroke-width="4"/>
<polygon transform="translate(2.1714 2.8348)" points="27.208 77.814 31.652 60.207 44.84 73.52" fill="none" stroke-linejoin="round" stroke-width="6"/>
<polygon transform="translate(2.1714 2.8348)" points="91.426 0.23034 104.76 13.4 45.126 73.09 31.795 59.778 70.355 21.272" fill="none" stroke-linejoin="round" stroke-width="6"/>
</g>
</svg>
