<svg version="1.1" viewBox="0 0 640 895" xmlns="http://www.w3.org/2000/svg" xmlns:cc="http://creativecommons.org/ns#" xmlns:dc="http://purl.org/dc/elements/1.1/" xmlns:rdf="http://www.w3.org/1999/02/22-rdf-syntax-ns#">
<metadata>
<rdf:RDF>
<cc:Work rdf:about="">
<dc:format>image/svg+xml</dc:format>
<dc:type rdf:resource="http://purl.org/dc/dcmitype/StillImage"/>
<dc:title/>
</cc:Work>
</rdf:RDF>
</metadata>
<path d="m512 128c-71 0-128 57-128 128 0 47 26 88 64 110v18c0 64-64 128-128 128-53 0-95 11-128 29v-303c38-22 64-63 64-110 0-71-57-128-128-128s-128 57-128 128c0 47 26 88 64 110v419c-38 22-64 63-64 110 0 71 57 128 128 128s128-57 128-128c0-34-13-64-34-87 19-23 49-41 98-41 128 0 256-128 256-256v-18c38-22 64-63 64-110 0-71-57-128-128-128zm-384-64c35 0 64 29 64 64s-29 64-64 64-64-29-64-64 29-64 64-64zm0 768c-35 0-64-29-64-64s29-64 64-64 64 29 64 64-29 64-64 64zm384-512c-35 0-64-29-64-64s29-64 64-64 64 29 64 64-29 64-64 64z" fill="#333"/>
</svg>
