<svg version="1.1" viewBox="0 0 768 1024" xmlns="http://www.w3.org/2000/svg" xmlns:cc="http://creativecommons.org/ns#" xmlns:dc="http://purl.org/dc/elements/1.1/" xmlns:rdf="http://www.w3.org/1999/02/22-rdf-syntax-ns#">
<metadata>
<rdf:RDF>
<cc:Work rdf:about="">
<dc:format>image/svg+xml</dc:format>
<dc:type rdf:resource="http://purl.org/dc/dcmitype/StillImage"/>
<dc:title/>
</cc:Work>
</rdf:RDF>
</metadata>
<path d="m320 256h-64v64h64v-64zm0-128h-64v64h64v-64zm384-128h-640s-64 32-64 64 0 736 0 768 32 64 64 64 128 0 128 0v128l96-96 96 96v-128s288 0 320 0 64-32 64-64 0-736 0-768-32-64-64-64zm0 800c0 16-15 32-32 32s-288 0-288 0v-64h-192v64s-79 0-96 0-32-17-32-32 0-96 0-96h640s0 80 0 96zm0-160h-512v-576h513l-1 576zm-384-128h-64v64h64v-64zm0-128h-64v64h64v-64z" fill="#333"/>
</svg>
